<svg width="121" height="41" viewBox="0 0 121 41" fill="none" xmlns="http://www.w3.org/2000/svg">
<rect x="0.5" y="0.304565" width="120" height="40" rx="8" fill="#131316"/>
<path d="M83.0267 19.5054V21.7964H81.5906V23.2989H83.0267V28.4039C83.0267 30.147 83.8152 30.8443 85.7991 30.8443C86.1478 30.8443 86.4798 30.8028 86.7703 30.753V29.2671C86.5213 29.292 86.3636 29.3086 86.0896 29.3086C85.2015 29.3086 84.8113 28.8936 84.8113 27.9473V23.2989H86.7703V21.7964H84.8113V19.5054H83.0267Z" fill="white"/>
<path d="M91.8242 30.9688C94.4638 30.9688 96.0825 29.2007 96.0825 26.2706C96.0825 23.357 94.4555 21.5806 91.8242 21.5806C89.1845 21.5806 87.5576 23.357 87.5576 26.2706C87.5576 29.2007 89.1762 30.9688 91.8242 30.9688ZM91.8242 29.3834C90.2719 29.3834 89.4003 28.2461 89.4003 26.2706C89.4003 24.3116 90.2719 23.1661 91.8242 23.1661C93.3681 23.1661 94.248 24.3116 94.248 26.2706C94.248 28.2378 93.3681 29.3834 91.8242 29.3834Z" fill="white"/>
<path d="M97.4674 30.7945H99.252V25.4571C99.252 24.1871 100.207 23.3321 101.56 23.3321C101.875 23.3321 102.406 23.3902 102.556 23.44V21.6802C102.365 21.6304 102.024 21.6055 101.759 21.6055C100.58 21.6055 99.5758 22.253 99.3184 23.1412H99.1856V21.7549H97.4674V30.7945Z" fill="white"/>
<path d="M106.987 23.0997C108.307 23.0997 109.17 24.0211 109.212 25.4405H104.646C104.746 24.0294 105.667 23.0997 106.987 23.0997ZM109.203 28.3541C108.871 29.0596 108.133 29.4498 107.053 29.4498C105.626 29.4498 104.704 28.4454 104.646 26.8599V26.7603H111.03V26.1377C111.03 23.2989 109.51 21.5806 106.995 21.5806C104.447 21.5806 102.828 23.4151 102.828 26.3038C102.828 29.1924 104.414 30.9688 107.004 30.9688C109.071 30.9688 110.515 29.9727 110.922 28.3541H109.203Z" fill="white"/>
<path d="M71.3231 27.4563C71.4607 29.676 73.3105 31.0956 76.0636 31.0956C79.006 31.0956 80.8472 29.6072 80.8472 27.2326C80.8472 25.3657 79.7975 24.3332 77.2509 23.7396L75.8829 23.4041C74.2655 23.0255 73.6116 22.5179 73.6116 21.6317C73.6116 20.5133 74.6268 19.782 76.1497 19.782C77.595 19.782 78.593 20.4961 78.7737 21.6403H80.6493C80.5374 19.5497 78.6963 18.0785 76.1755 18.0785C73.4654 18.0785 71.6586 19.5497 71.6586 21.7608C71.6586 23.5847 72.6824 24.6688 74.9279 25.1936L76.5282 25.5808C78.1715 25.9679 78.8942 26.5357 78.8942 27.4821C78.8942 28.5834 77.7585 29.3835 76.2099 29.3835C74.5494 29.3835 73.3965 28.635 73.2331 27.4563H71.3231Z" fill="white"/>
<path d="M52.8357 21.6055C51.6072 21.6055 50.5447 22.2198 49.9969 23.2491H49.8641V21.7549H48.1458V33.7994H49.9305V29.4249H50.0716C50.5447 30.3794 51.5657 30.9439 52.8523 30.9439C55.1351 30.9439 56.5877 29.1426 56.5877 26.2706C56.5877 23.3985 55.1351 21.6055 52.8357 21.6055ZM52.3294 29.3419C50.8353 29.3419 49.8973 28.1631 49.8973 26.2789C49.8973 24.3863 50.8353 23.2076 52.3377 23.2076C53.8484 23.2076 54.7532 24.3614 54.7532 26.2706C54.7532 28.188 53.8484 29.3419 52.3294 29.3419Z" fill="white"/>
<path d="M62.8325 21.6055C61.604 21.6055 60.5415 22.2198 59.9937 23.2491H59.8609V21.7549H58.1426V33.7994H59.9273V29.4249H60.0684C60.5415 30.3794 61.5625 30.9439 62.8491 30.9439C65.1319 30.9439 66.5845 29.1426 66.5845 26.2706C66.5845 23.3985 65.1319 21.6055 62.8325 21.6055ZM62.3262 29.3419C60.8321 29.3419 59.8941 28.1631 59.8941 26.2789C59.8941 24.3863 60.8321 23.2076 62.3345 23.2076C63.8452 23.2076 64.75 24.3614 64.75 26.2706C64.75 28.188 63.8452 29.3419 62.3262 29.3419Z" fill="white"/>
<path d="M44.9438 30.7945H46.9914L42.509 18.3796H40.4356L35.9531 30.7945H37.9319L39.0762 27.4993H43.8081L44.9438 30.7945ZM41.3733 20.6337H41.5196L43.3177 25.8819H39.5666L41.3733 20.6337Z" fill="white"/>
<path d="M37.1523 9.01526V15.0043H39.3147C41.0994 15.0043 42.1328 13.9044 42.1328 11.9911C42.1328 10.1068 41.0911 9.01526 39.3147 9.01526H37.1523ZM38.082 9.86194H39.2109C40.4519 9.86194 41.1865 10.6505 41.1865 12.0035C41.1865 13.3773 40.4644 14.1576 39.2109 14.1576H38.082V9.86194Z" fill="white"/>
<path d="M45.2979 15.0914C46.6177 15.0914 47.4271 14.2074 47.4271 12.7423C47.4271 11.2855 46.6136 10.3973 45.2979 10.3973C43.9781 10.3973 43.1646 11.2855 43.1646 12.7423C43.1646 14.2074 43.9739 15.0914 45.2979 15.0914ZM45.2979 14.2987C44.5218 14.2987 44.086 13.7301 44.086 12.7423C44.086 11.7628 44.5218 11.1901 45.2979 11.1901C46.0699 11.1901 46.5098 11.7628 46.5098 12.7423C46.5098 13.726 46.0699 14.2987 45.2979 14.2987Z" fill="white"/>
<path d="M54.3192 10.4845H53.4269L52.6217 13.9335H52.5511L51.6214 10.4845H50.7665L49.8368 13.9335H49.7704L48.961 10.4845H48.0562L49.3014 15.0043H50.2186L51.1483 11.6757H51.2188L52.1527 15.0043H53.0782L54.3192 10.4845Z" fill="white"/>
<path d="M55.3468 15.0043H56.2392V12.3605C56.2392 11.6549 56.6583 11.215 57.3183 11.215C57.9782 11.215 58.2936 11.576 58.2936 12.3024V15.0043H59.1859V12.0782C59.1859 11.0033 58.6298 10.3973 57.6212 10.3973C56.9406 10.3973 56.4923 10.7003 56.2724 11.2025H56.206V10.4845H55.3468V15.0043Z" fill="white"/>
<path d="M60.5913 15.0043H61.4836V8.72058H60.5913V15.0043Z" fill="white"/>
<path d="M64.8396 15.0914C66.1594 15.0914 66.9688 14.2074 66.9688 12.7423C66.9688 11.2855 66.1553 10.3973 64.8396 10.3973C63.5198 10.3973 62.7063 11.2855 62.7063 12.7423C62.7063 14.2074 63.5156 15.0914 64.8396 15.0914ZM64.8396 14.2987C64.0635 14.2987 63.6277 13.7301 63.6277 12.7423C63.6277 11.7628 64.0635 11.1901 64.8396 11.1901C65.6116 11.1901 66.0515 11.7628 66.0515 12.7423C66.0515 13.726 65.6116 14.2987 64.8396 14.2987Z" fill="white"/>
<path d="M69.6275 14.3278C69.1419 14.3278 68.7891 14.0912 68.7891 13.6844C68.7891 13.286 69.0713 13.0743 69.6939 13.0328L70.7979 12.9623V13.34C70.7979 13.9003 70.2999 14.3278 69.6275 14.3278ZM69.3992 15.079C69.9927 15.079 70.4866 14.8217 70.7564 14.3693H70.827V15.0043H71.6861V11.9164C71.6861 10.9618 71.0469 10.3973 69.9139 10.3973C68.8887 10.3973 68.1583 10.8954 68.0669 11.6715H68.9302C69.0298 11.3519 69.3743 11.1693 69.8724 11.1693C70.4825 11.1693 70.7979 11.4391 70.7979 11.9164V12.3065L69.5735 12.3771C68.4986 12.4435 67.8926 12.9125 67.8926 13.726C67.8926 14.5519 68.5276 15.079 69.3992 15.079Z" fill="white"/>
<path d="M74.7142 15.079C75.3368 15.079 75.8639 14.7843 76.1336 14.2904H76.2042V15.0043H77.0592V8.72058H76.1668V11.2025H76.1004C75.8556 10.7045 75.3326 10.4098 74.7142 10.4098C73.5728 10.4098 72.8382 11.3146 72.8382 12.7423C72.8382 14.1742 73.5645 15.079 74.7142 15.079ZM74.9674 11.2108C75.7145 11.2108 76.1834 11.8043 76.1834 12.7465C76.1834 13.6927 75.7186 14.278 74.9674 14.278C74.212 14.278 73.7596 13.701 73.7596 12.7423C73.7596 11.7919 74.2162 11.2108 74.9674 11.2108Z" fill="white"/>
<path d="M82.8457 15.0914C84.1655 15.0914 84.9748 14.2074 84.9748 12.7423C84.9748 11.2855 84.1613 10.3973 82.8457 10.3973C81.5258 10.3973 80.7124 11.2855 80.7124 12.7423C80.7124 14.2074 81.5217 15.0914 82.8457 15.0914ZM82.8457 14.2987C82.0695 14.2987 81.6337 13.7301 81.6337 12.7423C81.6337 11.7628 82.0695 11.1901 82.8457 11.1901C83.6176 11.1901 84.0576 11.7628 84.0576 12.7423C84.0576 13.726 83.6176 14.2987 82.8457 14.2987Z" fill="white"/>
<path d="M86.156 15.0043H87.0483V12.3605C87.0483 11.6549 87.4675 11.215 88.1274 11.215C88.7874 11.215 89.1028 11.576 89.1028 12.3024V15.0043H89.9951V12.0782C89.9951 11.0033 89.439 10.3973 88.4304 10.3973C87.7498 10.3973 87.3015 10.7003 87.0815 11.2025H87.0151V10.4845H86.156V15.0043Z" fill="white"/>
<path d="M94.1048 9.35974V10.5052H93.3868V11.2565H94.1048V13.809C94.1048 14.6805 94.4991 15.0292 95.4911 15.0292C95.6654 15.0292 95.8314 15.0084 95.9767 14.9835V14.2406C95.8521 14.2531 95.7733 14.2614 95.6363 14.2614C95.1922 14.2614 94.9972 14.0538 94.9972 13.5807V11.2565H95.9767V10.5052H94.9972V9.35974H94.1048Z" fill="white"/>
<path d="M97.1745 15.0043H98.0668V12.3646C98.0668 11.6798 98.4735 11.2191 99.204 11.2191C99.8349 11.2191 100.171 11.5844 100.171 12.3065V15.0043H101.063V12.0865C101.063 11.0116 100.47 10.4015 99.507 10.4015C98.8263 10.4015 98.349 10.7045 98.1291 11.2108H98.0585V8.72058H97.1745V15.0043Z" fill="white"/>
<path d="M104.282 11.1569C104.942 11.1569 105.374 11.6176 105.395 12.3273H103.112C103.162 11.6217 103.623 11.1569 104.282 11.1569ZM105.391 13.7841C105.225 14.1368 104.855 14.3319 104.316 14.3319C103.602 14.3319 103.141 13.8297 103.112 13.037V12.9872H106.304V12.6759C106.304 11.2565 105.544 10.3973 104.287 10.3973C103.012 10.3973 102.203 11.3146 102.203 12.7589C102.203 14.2032 102.996 15.0914 104.291 15.0914C105.324 15.0914 106.046 14.5934 106.25 13.7841H105.391Z" fill="white"/>
<path d="M26.27 20.6056C26.2916 18.9246 27.1944 17.334 28.6265 16.4536C27.7231 15.1632 26.2098 14.3451 24.6354 14.2959C22.9561 14.1196 21.3282 15.3007 20.4725 15.3007C19.6002 15.3007 18.2827 14.3134 16.864 14.3426C15.0147 14.4023 13.2907 15.4537 12.391 17.0704C10.457 20.4189 11.8996 25.3399 13.7522 28.0465C14.6791 29.3719 15.7624 30.8523 17.1799 30.7998C18.5669 30.7423 19.085 29.9153 20.7593 29.9153C22.418 29.9153 22.9041 30.7998 24.3503 30.7664C25.8387 30.7423 26.7764 29.4352 27.6708 28.0973C28.3368 27.1529 28.8492 26.1092 29.1892 25.0048C27.4401 24.265 26.272 22.5048 26.27 20.6056Z" fill="white"/>
<path d="M23.5383 12.5159C24.3498 11.5417 24.7496 10.2895 24.6528 9.02527C23.413 9.15549 22.2677 9.74805 21.4452 10.6849C20.641 11.6002 20.2224 12.8304 20.3015 14.0463C21.5418 14.059 22.7611 13.4825 23.5383 12.5159Z" fill="white"/>
</svg>
