<svg width="25" height="18" viewBox="0 0 25 18" fill="none" xmlns="http://www.w3.org/2000/svg">
<path d="M22.5042 1H2.16238C1.52042 1 1 1.5731 1 2.28V15.72C1 16.4269 1.52042 17 2.16238 17H22.5042C23.1463 17 23.6667 16.4269 23.6667 15.72V2.28C23.6667 1.5731 23.1463 1 22.5042 1Z" stroke="#131316"/>
<path d="M21.5441 10.4499H21.6661L21.6778 10.8106H22.0104L21.7029 10.0083L21.8182 9.95312L22.1575 10.8216V10.932H21.6795V11.2411H21.5441V10.932H21.3954V10.8106H21.5441V10.4499ZM20.8263 9.95312C20.9433 9.95312 21.0552 9.99728 21.1522 10.1003L21.0769 10.1941C21.0001 10.115 20.9315 10.0764 20.833 10.0764C20.711 10.0764 20.6141 10.1518 20.6141 10.2916C20.6141 10.4444 20.7227 10.5143 20.833 10.5143H20.9015L20.9182 10.6358H20.8213C20.686 10.6358 20.5824 10.6946 20.5824 10.8767C20.5824 11.035 20.6776 11.1361 20.8397 11.1361C20.9334 11.1361 21.0303 11.0939 21.0954 11.0093L21.1889 11.0939C21.1021 11.2116 20.9651 11.2614 20.8363 11.2614C20.5991 11.2614 20.437 11.0958 20.437 10.8767C20.437 10.68 20.564 10.5769 20.6994 10.5658C20.5773 10.54 20.4738 10.4241 20.4738 10.2715C20.4737 10.0985 20.6108 9.95312 20.8263 9.95312ZM19.8244 9.95312C19.9797 9.95312 20.0834 10.0139 20.1753 10.1353L20.0784 10.2163C20.0048 10.1224 19.9431 10.0819 19.8295 10.0819C19.7008 10.0819 19.6239 10.1703 19.6239 10.312C19.6239 10.5199 19.7174 10.6578 20.1519 11.116V11.2411H19.4685L19.4518 11.1105H19.9931C19.6139 10.7296 19.4785 10.54 19.4785 10.3083C19.4785 10.1059 19.6071 9.95312 19.8244 9.95312ZM18.7707 9.97522L19.1115 10.207L19.0513 10.3156L18.7873 10.1408V11.116H19.0715V11.2411H18.4081V11.116H18.6487V9.97522H18.7707ZM16.5346 10.4499H16.6566L16.6683 10.8106H17.0008L16.6933 10.0083L16.8086 9.95312L17.1478 10.8216V10.932H16.67V11.2411H16.5346V10.932H16.3858V10.8106H16.5346V10.4499ZM15.8168 9.95312C15.9337 9.95312 16.0456 9.99728 16.1426 10.1003L16.0674 10.1941C15.9905 10.115 15.922 10.0764 15.8234 10.0764C15.7014 10.0764 15.6045 10.1518 15.6045 10.2916C15.6045 10.4444 15.7131 10.5143 15.8234 10.5143H15.8919L15.9087 10.6358H15.8117C15.6764 10.6358 15.5728 10.6946 15.5728 10.8767C15.5728 11.035 15.668 11.1361 15.8302 11.1361C15.9237 11.1361 16.0206 11.0939 16.0858 11.0093L16.1794 11.0939C16.0925 11.2116 15.9554 11.2614 15.8268 11.2614C15.5894 11.2614 15.4274 11.0958 15.4274 10.8767C15.4274 10.68 15.5544 10.5769 15.6897 10.5658C15.5677 10.54 15.4641 10.4241 15.4641 10.2715C15.4641 10.0985 15.6012 9.95312 15.8168 9.95312ZM14.8148 9.95312C14.9702 9.95312 15.0738 10.0139 15.1657 10.1353L15.0688 10.2163C14.9953 10.1224 14.9335 10.0819 14.8199 10.0819C14.6912 10.0819 14.6143 10.1703 14.6143 10.312C14.6143 10.5199 14.7079 10.6578 15.1423 11.116V11.2411H14.4589L14.4422 11.1105H14.9836C14.6043 10.7296 14.4689 10.54 14.4689 10.3083C14.4689 10.1059 14.5975 9.95312 14.8148 9.95312ZM13.7611 9.97522L14.102 10.207L14.0418 10.3156L13.7778 10.1408V11.116H14.0619V11.2411H13.3985V11.116H13.6392V9.97522H13.7611ZM11.525 10.4499H11.647L11.6587 10.8106H11.9912L11.6837 10.0083L11.7991 9.95312L12.1382 10.8216V10.932H11.6603V11.2411H11.525V10.932H11.3763V10.8106H11.525V10.4499ZM10.8072 9.95312C10.9241 9.95312 11.0361 9.99728 11.133 10.1003L11.0578 10.1941C10.9809 10.115 10.9124 10.0764 10.8138 10.0764C10.6919 10.0764 10.5949 10.1518 10.5949 10.2916C10.5949 10.4444 10.7035 10.5143 10.8138 10.5143H10.8824L10.8991 10.6358H10.8022C10.6668 10.6358 10.5631 10.6946 10.5631 10.8767C10.5631 11.035 10.6584 11.1361 10.8205 11.1361C10.9141 11.1361 11.011 11.0939 11.0762 11.0093L11.1698 11.0939C11.0829 11.2116 10.9459 11.2614 10.8172 11.2614C10.5799 11.2614 10.4179 11.0958 10.4179 10.8767C10.4179 10.68 10.5449 10.5769 10.6802 10.5658C10.5582 10.54 10.4546 10.4241 10.4546 10.2715C10.4546 10.0985 10.5916 9.95312 10.8072 9.95312ZM9.80527 9.95312C9.96066 9.95312 10.0642 10.0139 10.1562 10.1353L10.0593 10.2163C9.98572 10.1224 9.92386 10.0819 9.81029 10.0819C9.68164 10.0819 9.60474 10.1703 9.60474 10.312C9.60474 10.5199 9.69835 10.6578 10.1328 11.116V11.2411H9.44932L9.43264 11.1105H9.974C9.59474 10.7296 9.45935 10.54 9.45935 10.3083C9.45938 10.1059 9.58806 9.95312 9.80527 9.95312ZM8.75158 9.97522L9.09246 10.207L9.03233 10.3156L8.76832 10.1408V11.116H9.05238V11.2411H8.38897V11.116H8.62958V9.97522H8.75158ZM6.51545 10.4499H6.63744L6.64914 10.8106H6.98166L6.6742 10.0083L6.78945 9.95312L7.12869 10.8216V10.932H6.65078V11.2411H6.51542V10.932H6.36672V10.8106H6.51542L6.51545 10.4499ZM5.79762 9.95312C5.91457 9.95312 6.0265 9.99728 6.12343 10.1003L6.04829 10.1941C5.97142 10.115 5.9029 10.0764 5.80433 10.0764C5.68231 10.0764 5.58541 10.1518 5.58541 10.2916C5.58541 10.4444 5.69404 10.5143 5.80433 10.5143H5.87282L5.88953 10.6358H5.79263C5.6573 10.6358 5.55369 10.6946 5.55369 10.8767C5.55369 11.035 5.64892 11.1361 5.81102 11.1361C5.9046 11.1361 6.0015 11.0939 6.06667 11.0093L6.16022 11.0939C6.07336 11.2116 5.93632 11.2614 5.80771 11.2614C5.5704 11.2614 5.4083 11.0958 5.4083 10.8767C5.4083 10.68 5.53531 10.5769 5.67067 10.5658C5.54865 10.54 5.44507 10.4241 5.44507 10.2715C5.44504 10.0985 5.58207 9.95312 5.79762 9.95312ZM4.79573 9.95312C4.95114 9.95312 5.05472 10.0139 5.1466 10.1353L5.04968 10.2163C4.97618 10.1224 4.91435 10.0819 4.80071 10.0819C4.67206 10.0819 4.59516 10.1703 4.59516 10.312C4.59516 10.5199 4.68874 10.6578 5.12321 11.116V11.2411H4.43981L4.42306 11.1105H4.96445C4.58516 10.7296 4.4498 10.54 4.4498 10.3083C4.44983 10.1059 4.57848 9.95312 4.79573 9.95312ZM3.742 9.97522L4.08288 10.207L4.02272 10.3156L3.75874 10.1408V11.116H4.0428V11.2411H3.37939V11.116H3.62001V9.97522H3.742Z" fill="#D1D1D6"/>
<path d="M22.1708 13.5422V13.456C22.097 13.4481 22.0455 13.4349 22.0164 13.4166C21.9872 13.3978 21.9655 13.3539 21.9511 13.2847H21.8705V14.176H21.9795V13.5422H22.1708ZM21.5237 13.5422V13.456C21.4499 13.4481 21.3985 13.4349 21.3693 13.4166C21.3402 13.3978 21.3184 13.3539 21.3041 13.2847H21.2234V14.176H21.3325V13.5422H21.5238H21.5237ZM20.6292 14.176C20.6254 14.0989 20.611 14.0318 20.586 13.9747C20.5607 13.9176 20.5115 13.8657 20.4385 13.8191L20.3296 13.7498C20.2807 13.7185 20.2464 13.6919 20.2268 13.6697C20.1957 13.6351 20.1802 13.5956 20.1802 13.5509C20.1802 13.4989 20.1944 13.4576 20.2228 13.4272C20.2512 13.3964 20.289 13.3809 20.3363 13.3809C20.4063 13.3809 20.4547 13.4101 20.4816 13.4684C20.496 13.4997 20.5039 13.543 20.5054 13.5984H20.6093C20.6082 13.5205 20.5952 13.4569 20.5701 13.4078C20.5259 13.3212 20.4478 13.2778 20.3358 13.2778C20.2426 13.2778 20.1747 13.3055 20.1319 13.361C20.0889 13.4164 20.0672 13.4781 20.0672 13.546C20.0672 13.6177 20.0901 13.6789 20.1359 13.7297C20.1625 13.7593 20.2099 13.7951 20.2784 13.8372L20.3562 13.8847C20.3933 13.9072 20.4224 13.9287 20.4436 13.9491C20.4814 13.9854 20.5052 14.0256 20.515 14.0698H20.0712V14.176H20.6292V14.176ZM19.7166 14.2004C19.8127 14.2004 19.8824 14.1714 19.926 14.1135C19.9691 14.0552 19.9907 13.9843 19.9907 13.9011H19.884C19.8795 13.9589 19.8696 14.001 19.8545 14.0272C19.828 14.0743 19.7801 14.0978 19.7108 14.0978C19.6571 14.0978 19.614 14.082 19.5815 14.0503C19.5489 14.0188 19.5327 13.9779 19.5327 13.9279C19.5327 13.8662 19.5498 13.8231 19.5842 13.7985C19.6183 13.7739 19.6658 13.7617 19.7267 13.7617C19.7335 13.7617 19.7405 13.7619 19.7477 13.7623C19.7546 13.7623 19.7615 13.7626 19.7687 13.763V13.6636C19.7581 13.6649 19.7492 13.6657 19.7421 13.6661C19.7349 13.6665 19.7271 13.6668 19.7188 13.6668C19.6806 13.6668 19.6491 13.66 19.6245 13.6467C19.5813 13.6233 19.5598 13.5817 19.5598 13.5217C19.5598 13.4771 19.5742 13.4427 19.603 13.4186C19.6317 13.3944 19.6652 13.3823 19.7034 13.3823C19.7715 13.3823 19.8186 13.4072 19.8447 13.4573C19.8591 13.4848 19.8672 13.524 19.8692 13.5749H19.9702C19.9702 13.5082 19.9581 13.4515 19.9339 13.4048C19.8922 13.3215 19.819 13.2798 19.7142 13.2798C19.6313 13.2798 19.5672 13.3002 19.5217 13.3411C19.4764 13.3815 19.4536 13.4402 19.4536 13.5173C19.4536 13.5724 19.4671 13.6169 19.4939 13.6511C19.5106 13.6723 19.5322 13.689 19.5587 13.701C19.5159 13.7139 19.4826 13.739 19.4588 13.7761C19.4346 13.8127 19.4224 13.8577 19.4224 13.9111C19.4224 13.9965 19.448 14.0661 19.4991 14.1199C19.5502 14.1735 19.6227 14.2004 19.7166 14.2004ZM18.9055 13.9479C18.8987 14.012 18.8716 14.0564 18.8244 14.081C18.8001 14.0934 18.7721 14.0997 18.7403 14.0997C18.6798 14.0997 18.6349 14.0785 18.6058 14.036C18.5766 13.9935 18.5621 13.9464 18.5621 13.8947C18.5621 13.8322 18.5795 13.7839 18.6143 13.7498C18.6487 13.7156 18.6902 13.6985 18.7386 13.6985C18.7738 13.6985 18.8041 13.706 18.8294 13.7209C18.8544 13.736 18.8758 13.7568 18.8936 13.7835L18.9821 13.7778L18.9202 13.2959H18.4979V13.4047H18.8436L18.8782 13.6535C18.8593 13.6376 18.8413 13.6257 18.8244 13.6178C18.794 13.6041 18.759 13.5971 18.7193 13.5971C18.6448 13.5971 18.5816 13.6236 18.5298 13.6766C18.4779 13.7294 18.452 13.7965 18.452 13.8778C18.452 13.9624 18.4758 14.037 18.5235 14.1015C18.5708 14.1661 18.6465 14.1984 18.7506 14.1984C18.8168 14.1984 18.8754 14.178 18.9265 14.1371C18.9772 14.0959 19.0056 14.0328 19.0116 13.9478H18.9055V13.9479ZM18.0859 13.656C18.0409 13.656 18.0057 13.6423 17.9803 13.6148C17.9549 13.5868 17.9422 13.5537 17.9422 13.5154C17.9422 13.482 17.9544 13.4514 17.9786 13.4235C18.0028 13.3956 18.0397 13.3816 18.0893 13.3816C18.1385 13.3816 18.174 13.3956 18.196 13.4235C18.218 13.4514 18.2289 13.4841 18.2289 13.5215C18.2289 13.5637 18.2148 13.5965 18.1864 13.6203C18.158 13.6441 18.1245 13.656 18.0859 13.656ZM18.0796 14.0991C18.0324 14.0991 17.9932 14.0851 17.9621 14.0573C17.9308 14.0288 17.915 13.9868 17.915 13.931C17.915 13.873 17.9312 13.8291 17.9633 13.7991C17.9955 13.769 18.0367 13.7541 18.0871 13.7541C18.1358 13.7541 18.1758 13.7695 18.2067 13.8003C18.2374 13.8308 18.2528 13.873 18.2528 13.9273C18.2528 13.9738 18.2388 14.0143 18.2108 14.0485C18.1824 14.0822 18.1386 14.0991 18.0796 14.0991ZM18.2249 13.6991C18.2533 13.6857 18.2754 13.6701 18.2914 13.6522C18.3213 13.6188 18.3362 13.5755 18.3362 13.5221C18.3362 13.4556 18.3142 13.3983 18.2703 13.3503C18.2265 13.3024 18.1643 13.2784 18.0837 13.2784C18.0057 13.2784 17.9446 13.3012 17.9003 13.3466C17.856 13.3915 17.8339 13.4443 17.8339 13.5047C17.8339 13.5605 17.8467 13.6057 17.8725 13.6403C17.8869 13.6598 17.9092 13.6791 17.9395 13.6978C17.9058 13.7148 17.8793 13.7345 17.86 13.7565C17.824 13.7982 17.8062 13.8524 17.8062 13.9191C17.8062 13.9978 17.8301 14.0647 17.8781 14.1197C17.9263 14.1743 17.9941 14.2016 18.082 14.2016C18.161 14.2016 18.228 14.1781 18.2829 14.1309C18.3374 14.0835 18.3646 14.0146 18.3646 13.9247C18.3646 13.8717 18.3529 13.8261 18.3294 13.7878C18.3059 13.7491 18.2711 13.7195 18.2249 13.6991Z" fill="#D1D1D6"/>
<path d="M16.7296 13.5753V13.489C16.6558 13.4811 16.6044 13.4681 16.5753 13.4497C16.5461 13.4309 16.5243 13.3869 16.51 13.3178H16.4294V14.2091H16.5384V13.5753H16.7296ZM15.8919 14.2335C15.988 14.2335 16.0578 14.2045 16.1013 14.1467C16.1445 14.0883 16.1661 14.0174 16.1661 13.9341H16.0593C16.0548 13.992 16.0449 14.0341 16.0298 14.0603C16.0033 14.1074 15.9555 14.131 15.8863 14.131C15.8324 14.131 15.7894 14.1152 15.7568 14.0835C15.7242 14.0518 15.708 14.011 15.708 13.961C15.708 13.8993 15.7252 13.8562 15.7596 13.8316C15.7937 13.807 15.8412 13.7947 15.9021 13.7947C15.9089 13.7947 15.9159 13.795 15.9231 13.7954C15.9299 13.7954 15.9369 13.7956 15.944 13.7961V13.6966C15.9335 13.6979 15.9246 13.6988 15.9174 13.6992C15.9102 13.6997 15.9025 13.6998 15.8941 13.6998C15.8559 13.6998 15.8245 13.6931 15.7998 13.6798C15.7568 13.6564 15.7352 13.6148 15.7352 13.5548C15.7352 13.5102 15.7495 13.4758 15.7783 13.4517C15.807 13.4275 15.8405 13.4154 15.8787 13.4154C15.9469 13.4154 15.994 13.4404 16.0201 13.4904C16.0345 13.5179 16.0426 13.5571 16.0445 13.608H16.1455C16.1455 13.5413 16.1334 13.4846 16.1092 13.4379C16.0676 13.3546 15.9943 13.3129 15.8896 13.3129C15.8067 13.3129 15.7426 13.3333 15.6972 13.3741C15.6518 13.4146 15.6291 13.4733 15.6291 13.5504C15.6291 13.6054 15.6425 13.65 15.6693 13.6842C15.686 13.7053 15.7076 13.722 15.7341 13.7342C15.6913 13.7471 15.658 13.7721 15.6341 13.8091C15.6099 13.8459 15.5978 13.8909 15.5978 13.9442C15.5978 14.0296 15.6234 14.0992 15.6745 14.1529C15.7256 14.2067 15.798 14.2336 15.8918 14.2336H15.8919V14.2335ZM15.5105 14.2091C15.5067 14.1319 15.4923 14.0649 15.4673 14.0078C15.442 13.9508 15.3928 13.8988 15.3198 13.8522L15.2108 13.7828C15.162 13.7516 15.1278 13.7249 15.1081 13.7029C15.077 13.6682 15.0615 13.6287 15.0615 13.5841C15.0615 13.532 15.0757 13.4907 15.1041 13.4604C15.1325 13.4295 15.1703 13.4141 15.2176 13.4141C15.2876 13.4141 15.336 13.4433 15.3629 13.5016C15.3773 13.5328 15.3852 13.5762 15.3867 13.6316H15.4906C15.4895 13.5537 15.4764 13.4901 15.4515 13.441C15.4072 13.3543 15.329 13.311 15.217 13.311C15.1239 13.311 15.056 13.3387 15.0133 13.3941C14.9701 13.4495 14.9485 13.5112 14.9485 13.5791C14.9485 13.6507 14.9714 13.7121 15.0172 13.7629C15.0437 13.7925 15.0912 13.8282 15.1597 13.8703L15.2374 13.9179C15.2745 13.9404 15.3036 13.9618 15.3249 13.9822C15.3627 14.0185 15.3866 14.0587 15.3964 14.1029H14.9525V14.2092L15.5105 14.2091ZM14.7885 13.5753V13.489C14.7147 13.4811 14.6633 13.4681 14.6342 13.4497C14.605 13.4309 14.5832 13.3869 14.5689 13.3178H14.4883V14.2091H14.5972V13.5753H14.7885ZM13.6285 14.2335C13.7245 14.2335 13.7943 14.2045 13.8378 14.1467C13.881 14.0883 13.9025 14.0174 13.9025 13.9341H13.7958C13.7914 13.992 13.7815 14.0341 13.7663 14.0603C13.7399 14.1074 13.692 14.131 13.6227 14.131C13.569 14.131 13.5258 14.1152 13.4933 14.0835C13.4607 14.0518 13.4445 14.011 13.4445 13.961C13.4445 13.8993 13.4617 13.8562 13.4961 13.8316C13.5302 13.807 13.5777 13.7947 13.6386 13.7947C13.6454 13.7947 13.6523 13.795 13.6596 13.7954C13.6664 13.7954 13.6734 13.7956 13.6806 13.7961V13.6966C13.67 13.6979 13.6611 13.6988 13.6539 13.6992C13.6467 13.6997 13.6389 13.6998 13.6306 13.6998C13.5924 13.6998 13.561 13.6931 13.5364 13.6798C13.4933 13.6564 13.4717 13.6148 13.4717 13.5548C13.4717 13.5102 13.4861 13.4758 13.5148 13.4517C13.5435 13.4275 13.577 13.4154 13.6153 13.4154C13.6834 13.4154 13.7305 13.4404 13.7566 13.4904C13.771 13.5179 13.7791 13.5571 13.781 13.608H13.882C13.882 13.5413 13.87 13.4846 13.8457 13.4379C13.8041 13.3546 13.7309 13.3129 13.6261 13.3129C13.5432 13.3129 13.4791 13.3333 13.4336 13.3741C13.3883 13.4146 13.3655 13.4733 13.3655 13.5504C13.3655 13.6054 13.379 13.65 13.4058 13.6842C13.4225 13.7053 13.444 13.722 13.4706 13.7342C13.4278 13.7471 13.3945 13.7721 13.3707 13.8091C13.3465 13.8459 13.3343 13.8909 13.3343 13.9442C13.3343 14.0296 13.3599 14.0992 13.4109 14.1529C13.4621 14.2066 13.5345 14.2335 13.6285 14.2335ZM12.899 13.8922V13.4866L13.1596 13.8922H12.899ZM12.8973 14.2091V13.9903H13.2538V13.8803L12.8815 13.3116H12.7952V13.8922H12.6754V13.9903H12.7952V14.2091H12.8973ZM12.4927 13.981C12.4859 14.0451 12.4588 14.0894 12.4115 14.114C12.3873 14.1266 12.3593 14.1328 12.3275 14.1328C12.2669 14.1328 12.2221 14.1116 12.193 14.0691C12.1639 14.0266 12.1493 13.9795 12.1493 13.9279C12.1493 13.8653 12.1667 13.817 12.2015 13.7828C12.2359 13.7487 12.2774 13.7316 12.3258 13.7316C12.361 13.7316 12.3912 13.739 12.4166 13.7541C12.4416 13.7691 12.4629 13.7899 12.4808 13.8166L12.5693 13.811L12.5074 13.329H12.0851V13.4378H12.4308L12.4654 13.6866C12.4465 13.6707 12.4285 13.6588 12.4115 13.6509C12.3812 13.6372 12.3462 13.6303 12.3065 13.6303C12.2319 13.6303 12.1688 13.6567 12.117 13.7096C12.0651 13.7626 12.0392 13.8296 12.0392 13.9109C12.0392 13.9955 12.063 14.07 12.1107 14.1346C12.158 14.1992 12.2336 14.2315 12.3377 14.2315C12.4039 14.2315 12.4626 14.2111 12.5137 14.1703C12.5643 14.1291 12.5928 14.0659 12.5989 13.9809H12.4927V13.981ZM11.8456 13.981C11.8388 14.0451 11.8118 14.0894 11.7644 14.114C11.7402 14.1266 11.7122 14.1328 11.6805 14.1328C11.6199 14.1328 11.5751 14.1116 11.5459 14.0691C11.5168 14.0266 11.5023 13.9795 11.5023 13.9279C11.5023 13.8653 11.5196 13.817 11.5545 13.7828C11.5889 13.7487 11.6303 13.7316 11.6788 13.7316C11.7139 13.7316 11.7442 13.739 11.7696 13.7541C11.7945 13.7691 11.816 13.7899 11.8337 13.8166L11.9222 13.811L11.8603 13.329H11.4381V13.4378H11.7837L11.8183 13.6866C11.7994 13.6707 11.7814 13.6588 11.7644 13.6509C11.7341 13.6372 11.6992 13.6303 11.6594 13.6303C11.5848 13.6303 11.5217 13.6567 11.4698 13.7096C11.418 13.7626 11.3921 13.8296 11.3921 13.9109C11.3921 13.9955 11.4159 14.07 11.4636 14.1346C11.5109 14.1992 11.5865 14.2315 11.6906 14.2315C11.7569 14.2315 11.8155 14.2111 11.8666 14.1703C11.9173 14.1291 11.9457 14.0659 11.9517 13.9809H11.8455H11.8456V13.981Z" fill="#D1D1D6"/>
<path d="M1.18213 5.92811H23.4234V2.66406H1.18213V5.92811Z" fill="#131316" stroke="#131316" strokeWidth="0.188788"/>
<path d="M2.2207 6.66406H18.5522V9.22406H2.2207V6.66406Z" fill="#D1D1D6"/>
<path d="M16.0532 7.38734L15.7568 7.58896L15.8091 7.68334L16.0387 7.53136V8.37937H15.7917V8.48819H16.3685V8.37937H16.1593V7.38734H16.0532ZM16.8794 7.36816C16.7443 7.36816 16.6542 7.421 16.5742 7.52656L16.6585 7.59696C16.7224 7.51538 16.7762 7.48014 16.875 7.48014C16.9869 7.48014 17.0537 7.55692 17.0537 7.68015C17.0537 7.86095 16.9723 7.98099 16.5947 8.37937V8.48819H17.1889L17.2034 8.37456H16.7327C17.0625 8.0434 17.1802 7.87855 17.1802 7.677C17.1802 7.50097 17.0683 7.36816 16.8794 7.36816ZM17.7506 7.36816C17.6489 7.36816 17.5515 7.40659 17.4673 7.49616L17.5326 7.57771C17.5995 7.50893 17.6591 7.47534 17.7448 7.47534C17.8508 7.47534 17.9351 7.5409 17.9351 7.66252C17.9351 7.79532 17.8407 7.85615 17.7448 7.85615H17.6852L17.6707 7.96175H17.7549C17.8726 7.96175 17.9627 8.01297 17.9627 8.17133C17.9627 8.30893 17.8799 8.39696 17.739 8.39696C17.6576 8.39696 17.5733 8.36015 17.5167 8.28656L17.4353 8.36015C17.5109 8.46256 17.63 8.50575 17.7419 8.50575C17.9482 8.50575 18.0891 8.36173 18.0891 8.17133C18.0891 8.00017 17.9787 7.91056 17.861 7.90095C17.9671 7.87858 18.0572 7.77776 18.0572 7.64495C18.0572 7.49455 17.9381 7.36816 17.7506 7.36816Z" fill="#131316" stroke="#131316" strokeWidth="0.1"/>
</svg>
