<svg width="19" height="18" viewBox="0 0 19 18" fill="none" xmlns="http://www.w3.org/2000/svg">
<path d="M14.5493 1.35726C13.7158 0.407279 12.2092 0 10.2818 0H4.68793C4.49723 7.06111e-06 4.31279 0.0680417 4.16776 0.191872C4.02274 0.315703 3.92664 0.487206 3.89676 0.675548L1.56757 15.4478C1.52127 15.7391 1.74683 16.0029 2.04208 16.0029H5.49555L6.36286 10.5017L6.33594 10.674C6.39773 10.2851 6.7303 9.99828 7.12412 9.99828H8.7652C11.9891 9.99828 14.5135 8.68882 15.2509 4.90081C15.2728 4.78877 15.2917 4.67973 15.3081 4.5732C15.215 4.52391 15.215 4.52391 15.3081 4.5732C15.5277 3.17312 15.3066 2.22009 14.5493 1.35726Z" fill="#27346A"/>
<path d="M7.68429 4.06884C7.7787 4.02389 7.88196 4.00059 7.98653 4.00065H12.372C12.8913 4.00065 13.3757 4.03445 13.8184 4.10569C13.9422 4.12544 14.0654 4.14901 14.1878 4.17639C14.3613 4.21467 14.5328 4.26152 14.7016 4.31677C14.9192 4.38945 15.1219 4.47409 15.3082 4.5732C15.5277 3.17258 15.3066 2.22009 14.5493 1.35726C13.7154 0.407279 12.2092 0 10.2818 0H4.68745C4.29357 0 3.95848 0.286752 3.89676 0.675548L1.56757 15.4473C1.52127 15.7391 1.74683 16.0025 2.0416 16.0025H5.49555L7.29495 4.59162C7.31265 4.47946 7.35733 4.37328 7.42515 4.28222C7.49297 4.19115 7.5819 4.11792 7.68429 4.06884Z" fill="#27346A"/>
<path d="M15.2511 4.90085C14.5137 8.68832 11.9894 9.99832 8.7654 9.99832H7.12384C6.73002 9.99832 6.39739 10.2851 6.3362 10.674L5.2572 17.5141C5.21688 17.769 5.41403 18 5.67196 18H8.58314C8.7499 18 8.91118 17.9405 9.03796 17.8321C9.16475 17.7238 9.24872 17.5738 9.27478 17.4091L9.30313 17.2607L9.85181 13.7833L9.88716 13.5912C9.91322 13.4265 9.99719 13.2765 10.124 13.1681C10.2507 13.0598 10.412 13.0002 10.5787 13.0002H11.0144C13.8345 13.0002 16.0427 11.8545 16.688 8.541C16.9573 7.15628 16.818 6.00018 16.1055 5.18814C15.8893 4.94218 15.621 4.73905 15.3083 4.57324C15.2914 4.68031 15.273 4.78881 15.2511 4.90085Z" fill="#2790C3"/>
<path d="M14.5364 4.26541C14.4214 4.23184 14.3053 4.20211 14.1884 4.17629C14.0659 4.14936 13.9427 4.12594 13.8189 4.10606C13.3758 4.03435 12.8918 4.00049 12.372 4.00049H7.98702C7.88237 4.00025 7.77903 4.02375 7.68477 4.06922C7.58227 4.11815 7.49323 4.19133 7.42538 4.28242C7.35753 4.37352 7.31291 4.47977 7.29538 4.592L6.36334 10.5016L6.33643 10.6738C6.39774 10.285 6.73031 9.99818 7.12419 9.99818H8.76574C11.9896 9.99818 14.5139 8.68871 15.2513 4.9007C15.2733 4.78867 15.2917 4.68011 15.3086 4.5731C15.1219 4.47452 14.9198 4.38935 14.7021 4.31715C14.6472 4.29894 14.592 4.28169 14.5364 4.26541" fill="#1F264F"/>
</svg>
