<svg width="34" height="36" viewBox="0 0 34 36" fill="none" xmlns="http://www.w3.org/2000/svg">
<path d="M27.6667 5.50065C27.6667 6.27508 27.6667 6.66229 27.6026 6.98429C27.3396 8.30659 26.3059 9.34025 24.9836 9.60327C24.6616 9.66732 24.2744 9.66732 23.5 9.66732H5.16667C4.39224 9.66732 4.00503 9.66732 3.68303 9.60327C2.36073 9.34025 1.32707 8.30659 1.06405 6.98429C1 6.66229 1 6.27508 1 5.50065C1 4.72623 1 4.33901 1.06405 4.01702C1.32707 2.69471 2.36073 1.66106 3.68303 1.39803C4.00503 1.33398 4.39224 1.33398 5.16667 1.33398H23.5C24.2744 1.33398 24.6616 1.33398 24.9836 1.39803C26.3059 1.66106 27.3396 2.69471 27.6026 4.01702C27.6667 4.33901 27.6667 4.72623 27.6667 5.50065ZM27.6667 5.50065C29.2198 5.50065 29.9964 5.50065 30.6089 5.75439C31.4257 6.0927 32.0746 6.74161 32.4129 7.55837C32.6667 8.17094 32.6667 8.94751 32.6667 10.5007V11.0007C32.6667 12.8675 32.6667 13.8009 32.3034 14.514C31.9838 15.1412 31.4738 15.6511 30.8466 15.9707C30.1336 16.334 29.2002 16.334 27.3333 16.334H21.3333C19.4665 16.334 18.5331 16.334 17.82 16.6973C17.1928 17.0169 16.6829 17.5268 16.3633 18.154C16 18.8671 16 19.8005 16 21.6673V23.0007M15.3333 34.6673H16.6667C17.6001 34.6673 18.0668 34.6673 18.4233 34.4857C18.7369 34.3259 18.9919 34.0709 19.1517 33.7573C19.3333 33.4008 19.3333 32.9341 19.3333 32.0007V25.6673C19.3333 24.7339 19.3333 24.2672 19.1517 23.9107C18.9919 23.5971 18.7369 23.3421 18.4233 23.1823C18.0668 23.0007 17.6001 23.0007 16.6667 23.0007H15.3333C14.3999 23.0007 13.9332 23.0007 13.5767 23.1823C13.2631 23.3421 13.0081 23.5971 12.8483 23.9107C12.6667 24.2672 12.6667 24.7339 12.6667 25.6673V32.0007C12.6667 32.9341 12.6667 33.4008 12.8483 33.7573C13.0081 34.0709 13.2631 34.3259 13.5767 34.4857C13.9332 34.6673 14.3999 34.6673 15.3333 34.6673Z" stroke="#7757BD" strokeWidth="2" strokeLinecap="round" strokeLinejoin="round"/>
</svg>
