<svg width="31" height="36" viewBox="0 0 31 36" fill="none" xmlns="http://www.w3.org/2000/svg">
<path d="M28.3334 14.6673V9.33399C28.3334 6.53372 28.3334 5.13359 27.7884 4.06403C27.309 3.12322 26.5441 2.35832 25.6033 1.87895C24.5337 1.33398 23.1336 1.33398 20.3334 1.33398H9.66669C6.86642 1.33398 5.46629 1.33398 4.39673 1.87895C3.45592 2.35832 2.69102 3.12322 2.21165 4.06403C1.66669 5.13359 1.66669 6.53372 1.66669 9.33399V26.6673C1.66669 29.4676 1.66669 30.8677 2.21165 31.9373C2.69102 32.8781 3.45592 33.643 4.39673 34.1224C5.46629 34.6673 6.86642 34.6673 9.66669 34.6673H15M15.8334 16.334H8.33335M10 23.0007H8.33335M21.6667 9.66732H8.33335M23.3288 22.7183C21.9959 21.2033 19.7732 20.7958 18.1032 22.1831C16.4331 23.5703 16.198 25.8898 17.5095 27.5305C18.821 29.1713 23.3288 33.0007 23.3288 33.0007C23.3288 33.0007 27.8366 29.1713 29.1481 27.5305C30.4596 25.8898 30.2532 23.5558 28.5544 22.1831C26.8557 20.8104 24.6617 21.2033 23.3288 22.7183Z" stroke="#C8AA03" strokeWidth="2" strokeLinecap="round" strokeLinejoin="round"/>
</svg>
