<svg width="9" height="16" viewBox="0 0 9 16" fill="none" xmlns="http://www.w3.org/2000/svg">
<path d="M4.112 15.552V14.176C2 14.048 0.608 12.848 0.512 10.976H2.112C2.144 12 2.896 12.672 4.112 12.8V8.816L3.536 8.688C1.648 8.256 0.672 7.2 0.672 5.552C0.672 3.728 2.032 2.432 4.112 2.256V0.863999H5.136V2.24C7.072 2.416 8.304 3.6 8.416 5.456H6.864C6.8 4.432 6.176 3.776 5.136 3.632V7.6L5.76 7.744C7.68 8.176 8.608 9.184 8.608 10.784C8.608 12.688 7.248 13.968 5.136 14.16V15.552H4.112ZM3.856 7.296L4.112 7.36V3.632C2.928 3.792 2.208 4.48 2.208 5.504C2.208 6.432 2.736 7.024 3.856 7.296ZM5.44 9.136L5.136 9.072V12.768C6.336 12.608 7.072 11.92 7.072 10.912C7.072 9.984 6.544 9.392 5.44 9.136Z" fill="#131316"/>
</svg>
