<svg width="36" height="32" viewBox="0 0 36 32" fill="none" xmlns="http://www.w3.org/2000/svg">
<path d="M5.11983 30.5465L16.1141 19.5523C16.7741 18.8923 17.1041 18.5622 17.4846 18.4386C17.8194 18.3298 18.18 18.3298 18.5147 18.4386C18.8952 18.5622 19.2253 18.8923 19.8853 19.5523L30.8062 30.4732M21.333 21L26.1141 16.219C26.7741 15.5589 27.1041 15.2289 27.4846 15.1053C27.8194 14.9965 28.18 14.9965 28.5147 15.1053C28.8953 15.2289 29.2253 15.5589 29.8853 16.2189L34.6663 21M14.6663 11C14.6663 12.8409 13.174 14.3333 11.333 14.3333C9.49206 14.3333 7.99967 12.8409 7.99967 11C7.99967 9.15905 9.49206 7.66667 11.333 7.66667C13.174 7.66667 14.6663 9.15905 14.6663 11ZM9.33301 31H26.6663C29.4666 31 30.8667 31 31.9363 30.455C32.8771 29.9757 33.642 29.2108 34.1214 28.27C34.6663 27.2004 34.6663 25.8003 34.6663 23V9C34.6663 6.19974 34.6663 4.79961 34.1214 3.73005C33.642 2.78924 32.8771 2.02433 31.9363 1.54497C30.8667 1 29.4666 1 26.6663 1H9.33301C6.53275 1 5.13261 1 4.06306 1.54497C3.12225 2.02433 2.35734 2.78924 1.87798 3.73005C1.33301 4.79961 1.33301 6.19974 1.33301 9V23C1.33301 25.8003 1.33301 27.2004 1.87798 28.27C2.35734 29.2108 3.12225 29.9757 4.06306 30.455C5.13261 31 6.53275 31 9.33301 31Z" stroke="#A0A0AB" strokeWidth="1.5" strokeLinecap="round" strokeLinejoin="round"/>
</svg>
