<svg width="16" height="17" viewBox="0 0 16 17" fill="none" xmlns="http://www.w3.org/2000/svg">
<path d="M11.2719 1.73686V3.85197H10.0713C9.91218 3.83065 9.75053 3.84546 9.59733 3.89539C9.44414 3.94532 9.30298 4.02921 9.18346 4.14135L9.18452 4.14024C9.0127 4.39281 8.93159 4.70089 8.95553 5.01005V5.00561V6.51973H11.1972L10.9003 8.89144H8.95871V14.9712H6.6174V8.89088H4.66675V6.51973H6.6174V4.77288C6.59204 4.35097 6.64962 3.9281 6.78657 3.53045C6.92352 3.13281 7.13692 2.76886 7.41356 2.46115L7.41197 2.46282C7.69433 2.18247 8.02809 1.96514 8.39302 1.82402C8.75794 1.68291 9.14642 1.62094 9.53489 1.64188H9.528C10.1314 1.63146 10.7347 1.66579 11.3334 1.74464L11.2714 1.73798L11.2719 1.73686Z" fill="#3E3C37"/>
</svg>
