<svg width="24" height="23" viewBox="0 0 24 23" fill="none" xmlns="http://www.w3.org/2000/svg">
<path d="M17.6442 9.59431L17.571 9.5792C17.5109 9.56641 17.4483 9.55363 17.3858 9.54316C17.3233 9.53038 17.2714 9.52224 17.2218 9.51526C17.1853 9.50712 17.1487 9.5048 17.1121 9.50015L17.0708 9.4955C16.9977 9.48504 16.9245 9.47458 16.8514 9.4676L16.77 9.45946C16.3158 9.41877 15.9737 9.41877 15.5112 9.45946L15.4168 9.4676C15.3519 9.47574 15.2835 9.48271 15.2186 9.49317L15.1714 9.49782C15.1266 9.50247 15.0853 9.50829 15.0464 9.51526C15.0016 9.51991 14.9603 9.52805 14.919 9.53619L14.893 9.54084C14.8175 9.55595 14.742 9.56874 14.6653 9.58734L14.5946 9.60245L14.5922 9.5978L14.5639 9.61059L14.5061 9.62337C14.4719 9.63151 14.4376 9.63849 14.4046 9.64663L14.3787 9.65128C14.3032 9.66871 14.23 9.69196 14.1545 9.71521C14.0861 9.73614 14.0342 9.75358 13.9823 9.76869L13.8596 9.80938C13.81 9.82682 13.7687 9.84309 13.7239 9.8582L13.6378 9.89192C13.5021 9.94307 13.3688 10 13.2379 10.0593C13.173 10.0907 13.1128 10.1186 13.0526 10.1488C12.9689 10.1895 12.8981 10.2256 12.8308 10.2616L12.753 10.3081C12.4687 10.465 12.1914 10.6452 11.9354 10.8428L11.8812 10.8835C11.5473 11.1439 11.2358 11.4346 10.9562 11.7484L10.8182 11.9077L9.65027 13.9328L9.60072 14.0816C9.58538 14.1304 9.5665 14.1792 9.55117 14.2304L9.46033 14.5594C9.44499 14.6129 9.43201 14.6652 9.4214 14.7187L9.37657 14.9221H3.3304C2.93401 14.9221 2.61194 14.6059 2.61194 14.2141V6.68688C2.61194 6.42996 2.75823 6.19049 2.99064 6.06377L8.38676 3.23306C8.5826 3.12495 8.85158 3.12262 9.0604 3.23306L14.4483 6.06377C14.683 6.18467 14.8293 6.42415 14.8293 6.68688V8.14001C15.6858 8.00633 16.5848 8.00633 17.4413 8.14001V6.68688C17.4413 5.47438 16.7653 4.36535 15.6787 3.79223L10.2909 0.963845C9.79773 0.703443 9.25977 0.573242 8.71827 0.573242C8.17677 0.573242 7.64471 0.704606 7.1563 0.96152L1.76253 3.79688C0.67599 4.37 0 5.48019 0 6.69153V14.2188C0 16.0276 1.49355 17.5005 3.3304 17.5005H9.37421L9.41904 17.7017C10.1222 20.7718 12.9453 23.0004 16.1365 23.0004C19.9341 23.0004 23.0238 19.9558 23.0238 16.2136C23.0238 13.0691 20.7622 10.2837 17.6465 9.59431H17.6442ZM16.1341 20.4266C13.7864 20.4266 11.8694 18.5398 11.8611 16.2264C11.8611 14.8419 12.5453 13.5503 13.6944 12.7598C14.4152 12.2634 15.2587 12.0007 16.1341 12.0007C18.49 12.0007 20.4095 13.8898 20.4095 16.2136C20.4095 18.5375 18.49 20.4266 16.1341 20.4266Z" fill="#5F8FFA"/>
</svg>
