<svg width="17" height="16" viewBox="0 0 17 16" fill="none" xmlns="http://www.w3.org/2000/svg">
<path d="M4.2998 3C4.2998 1.61929 5.41909 0.5 6.7998 0.5H11.7927L16.0998 4.80711V13C16.0998 14.3807 14.9805 15.5 13.5998 15.5H6.79981C5.4191 15.5 4.2998 14.3807 4.2998 13V3ZM11.7877 0.494975L11.7877 0.495028C11.7877 0.49501 11.7877 0.494992 11.7877 0.494974L11.7998 0.482842L11.7877 0.494975Z" fill="white" stroke="#D1D1D6"/>
<path d="M11.7998 0.200195V0.800196C11.7998 3.00934 13.5907 4.8002 15.7998 4.8002H16.3998" stroke="#D1D1D6"/>
<rect x="0.299805" y="6.40039" width="15" height="8" rx="2" fill="#70707B"/>
<path d="M1.64492 11.3954V11.2154H2.11992V11.3954C2.11992 11.7504 2.31492 12.0054 2.71492 12.0054C3.12492 12.0054 3.30492 11.7554 3.30492 11.3804V8.78539H3.79492V11.4004C3.79492 12.0504 3.35992 12.4604 2.71492 12.4604C2.02492 12.4604 1.64492 12.0204 1.64492 11.3954ZM6.01641 11.1104H5.10141V12.4004H4.61141V8.78539H6.01641C6.72641 8.78539 7.18141 9.25039 7.18141 9.94539C7.18141 10.6204 6.72141 11.1104 6.01641 11.1104ZM5.93141 9.22539H5.10141V10.6704H5.91141C6.39641 10.6704 6.66641 10.3854 6.66641 9.94039C6.66641 9.48539 6.39141 9.22539 5.93141 9.22539ZM9.94141 12.4004H7.73641V8.78539H9.94141V9.23539H8.22641V10.3654H9.77141V10.8004H8.22641V11.9454H9.94141V12.4004ZM12.2014 9.18539C11.4214 9.18539 10.9514 9.76039 10.9514 10.6154C10.9514 11.4904 11.4614 11.9954 12.2064 11.9954C12.8214 11.9954 13.3164 11.6804 13.3164 10.9504V10.8454H12.1064V10.4104H13.7764V12.4054H13.3664L13.3314 11.9154C13.1364 12.2304 12.6964 12.4604 12.1664 12.4604C11.1414 12.4604 10.4364 11.7204 10.4364 10.6054C10.4364 9.50539 11.1464 8.72539 12.2114 8.72539C13.0014 8.72539 13.6164 9.18039 13.7364 9.87539H13.2164C13.0814 9.41539 12.6814 9.18539 12.2014 9.18539Z" fill="white"/>
</svg>
