<svg width="165" height="32" viewBox="0 0 165 32" fill="none" xmlns="http://www.w3.org/2000/svg">
<g clipPath="url(#clip0_4702_224)">
<path d="M33.6433 10.4121C34.4298 8.97986 35.5208 7.8685 36.9163 7.0811C38.3103 6.29369 39.9084 5.89844 41.7074 5.89844C44.0245 5.89844 45.9412 6.47039 47.4608 7.6143C48.9788 8.75821 49.996 10.3625 50.5141 12.4286H45.4185C45.1485 11.6288 44.6932 11.0011 44.0527 10.5469C43.4122 10.0928 42.6179 9.86337 41.6745 9.86337C40.3244 9.86337 39.2569 10.347 38.4689 11.3126C37.6808 12.2783 37.2884 13.65 37.2884 15.4279C37.2884 17.2058 37.6824 18.5434 38.4689 19.5091C39.2554 20.4748 40.3244 20.9584 41.6745 20.9584C43.5865 20.9584 44.8345 20.1151 45.42 18.4256H50.5156C49.9976 20.4252 48.9741 22.0124 47.4451 23.1904C45.9145 24.3684 44.0041 24.9558 41.709 24.9558C39.91 24.9558 38.3119 24.5621 36.9179 23.7732C35.5224 22.9858 34.4313 21.8744 33.6449 20.4422C32.8568 19.01 32.4644 17.3391 32.4644 15.4279C32.4644 13.5167 32.8584 11.8458 33.6449 10.4136L33.6433 10.4121Z" fill="#131316"/>
<path d="M53.2294 10.395C53.9829 8.95196 55.0064 7.8406 56.2999 7.06405C57.5935 6.28749 59.0377 5.89844 60.6358 5.89844C62.0298 5.89844 63.2511 6.17589 64.2966 6.73079C65.3421 7.2857 66.1804 7.9863 66.8098 8.82951V6.19759H71.568V24.6551H66.8098V21.9566C66.2023 22.823 65.364 23.5391 64.2966 24.1049C63.2275 24.6706 61.9968 24.9543 60.6012 24.9543C59.0267 24.9543 57.5919 24.5544 56.2999 23.7546C55.0064 22.9548 53.9829 21.8279 53.2294 20.3724C52.4759 18.9185 52.0991 17.2461 52.0991 15.3582C52.0991 13.4702 52.4759 11.8381 53.2294 10.3935V10.395ZM66.1348 12.5108C65.6843 11.7001 65.0768 11.0786 64.3123 10.6446C63.5478 10.2121 62.7268 9.99512 61.8492 9.99512C60.9717 9.99512 60.1617 10.2059 59.4192 10.6275C58.6766 11.0491 58.0754 11.666 57.6139 12.4767C57.1524 13.2873 56.9216 14.2484 56.9216 15.3582C56.9216 16.468 57.1524 17.4398 57.6139 18.2737C58.0754 19.1061 58.6814 19.7447 59.4364 20.1895C60.1899 20.6344 60.9937 20.8561 61.8492 20.8561C62.7048 20.8561 63.5478 20.6391 64.3123 20.2066C65.0768 19.7741 65.6843 19.1526 66.1348 18.3404C66.5854 17.5297 66.8098 16.5579 66.8098 15.4248C66.8098 14.2918 66.5854 13.3214 66.1348 12.5092V12.5108Z" fill="#131316"/>
<path d="M77.4124 24.1364C76.1974 23.5924 75.2367 22.853 74.5271 21.9214C73.8191 20.9883 73.4298 19.956 73.3623 18.823H78.1204C78.2099 19.5344 78.5647 20.1219 79.1832 20.5884C79.8017 21.055 80.5725 21.2875 81.4939 21.2875C82.4154 21.2875 83.0967 21.1092 83.6022 20.7543C84.1077 20.3993 84.3604 19.9436 84.3604 19.3887C84.3604 18.7889 84.0512 18.3394 83.4327 18.0387C82.8142 17.7395 81.8299 17.4109 80.4798 17.056C79.0843 16.7227 77.943 16.3786 77.0545 16.0237C76.166 15.6687 75.4015 15.1246 74.7594 14.3915C74.119 13.6583 73.7971 12.671 73.7971 11.4263C73.7971 10.4049 74.0954 9.47175 74.6919 8.62854C75.2885 7.78534 76.1424 7.11883 77.2554 6.62903C78.3684 6.14078 79.6792 5.89587 81.1863 5.89587C83.4138 5.89587 85.1893 6.44613 86.5173 7.54509C87.8438 8.64405 88.5754 10.1274 88.7104 11.9921H84.1893C84.1218 11.2589 83.8126 10.6761 83.2616 10.2437C82.7106 9.8112 81.9727 9.5942 81.0513 9.5942C80.1957 9.5942 79.538 9.7492 79.078 10.0608C78.6165 10.3723 78.3857 10.8048 78.3857 11.3597C78.3857 11.9812 78.6997 12.454 79.3307 12.7748C79.9602 13.0972 80.9382 13.4243 82.2663 13.7575C83.6163 14.0908 84.7293 14.4349 85.6069 14.7898C86.4844 15.1448 87.2442 15.6951 87.8847 16.4391C88.5251 17.1831 88.8579 18.1658 88.8799 19.3872C88.8799 20.4536 88.5816 21.4084 87.9851 22.2516C87.3886 23.0964 86.5346 23.7567 85.4216 24.2341C84.3086 24.7115 83.0088 24.9502 81.5238 24.9502C80.0387 24.9502 78.6212 24.6774 77.4077 24.1333L77.4124 24.1364Z" fill="#131316"/>
<path d="M91.3309 10.395C92.0845 8.95196 93.108 7.8406 94.4015 7.06405C95.695 6.28749 97.1393 5.89844 98.7373 5.89844C100.131 5.89844 101.353 6.17589 102.398 6.73079C103.444 7.2857 104.282 7.9863 104.911 8.82951V6.19759H109.67V24.6551H104.911V21.9566C104.304 22.823 103.466 23.5391 102.398 24.1049C101.329 24.6706 100.097 24.9543 98.7028 24.9543C97.1283 24.9543 95.6935 24.5544 94.4015 23.7546C93.108 22.9548 92.0845 21.8279 91.3309 20.3724C90.5759 18.9185 90.2007 17.2461 90.2007 15.3582C90.2007 13.4702 90.5774 11.8381 91.3309 10.3935V10.395ZM104.236 12.5108C103.786 11.7001 103.178 11.0786 102.414 10.6446C101.649 10.2121 100.828 9.99512 99.9508 9.99512C99.0733 9.99512 98.2632 10.2059 97.5207 10.6275C96.7782 11.0491 96.177 11.666 95.7154 12.4767C95.2539 13.2873 95.0231 14.2484 95.0231 15.3582C95.0231 16.468 95.2539 17.4398 95.7154 18.2737C96.177 19.1061 96.7829 19.7447 97.538 20.1895C98.2915 20.6344 99.0952 20.8561 99.9508 20.8561C100.806 20.8561 101.649 20.6391 102.414 20.2066C103.178 19.7741 103.786 19.1526 104.236 18.3404C104.685 17.5297 104.911 16.5579 104.911 15.4248C104.911 14.2918 104.687 13.3214 104.236 12.5092V12.5108Z" fill="#131316"/>
<path d="M112.909 10.4121C113.695 8.97986 114.786 7.8685 116.182 7.0811C117.576 6.29369 119.174 5.89844 120.973 5.89844C123.29 5.89844 125.207 6.47039 126.726 7.6143C128.244 8.75821 129.262 10.3625 129.78 12.4286H124.684C124.414 11.6288 123.959 11.0011 123.318 10.5469C122.678 10.0928 121.884 9.86337 120.94 9.86337C119.59 9.86337 118.523 10.347 117.735 11.3126C116.946 12.2783 116.554 13.65 116.554 15.4279C116.554 17.2058 116.948 18.5434 117.735 19.5091C118.523 20.4748 119.59 20.9584 120.94 20.9584C122.852 20.9584 124.1 20.1151 124.686 18.4256H129.781C129.263 20.4252 128.24 22.0124 126.711 23.1904C125.18 24.3684 123.268 24.9558 120.975 24.9558C119.176 24.9558 117.578 24.5621 116.184 23.7732C114.788 22.9858 113.697 21.8744 112.91 20.4422C112.122 19.01 111.73 17.3391 111.73 15.4279C111.73 13.5167 112.124 11.8458 112.91 10.4136L112.909 10.4121Z" fill="#131316"/>
<path d="M132.495 10.395C133.249 8.95196 134.272 7.8406 135.566 7.06405C136.859 6.28749 138.303 5.89844 139.901 5.89844C141.295 5.89844 142.517 6.17589 143.562 6.73079C144.608 7.2857 145.446 7.9863 146.075 8.82951V6.19759H150.834V24.6551H146.075V21.9566C145.468 22.823 144.63 23.5391 143.562 24.1049C142.493 24.6706 141.262 24.9543 139.867 24.9543C138.292 24.9543 136.858 24.5544 135.566 23.7546C134.272 22.9548 133.249 21.8279 132.495 20.3724C131.742 18.9185 131.365 17.2461 131.365 15.3582C131.365 13.4702 131.742 11.8381 132.495 10.3935V10.395ZM145.4 12.5108C144.95 11.7001 144.344 11.0786 143.578 10.6446C142.813 10.2121 141.992 9.99512 141.115 9.99512C140.237 9.99512 139.427 10.2059 138.686 10.6275C137.944 11.0491 137.343 11.666 136.881 12.4767C136.42 13.2873 136.189 14.2484 136.189 15.3582C136.189 16.468 136.42 17.4398 136.881 18.2737C137.343 19.1061 137.949 19.7447 138.704 20.1895C139.457 20.6344 140.261 20.8561 141.116 20.8561C141.972 20.8561 142.815 20.6391 143.579 20.2066C144.344 19.7741 144.951 19.1526 145.402 18.3404C145.853 17.5297 146.077 16.5579 146.077 15.4248C146.077 14.2918 145.853 13.3214 145.402 12.5092L145.4 12.5108Z" fill="#131316"/>
<path d="M157.9 0V24.6529H153.176V0H157.9Z" fill="#131316"/>
<path d="M165 0V24.6529H160.276V0H165Z" fill="#131316"/>
<path d="M12.9866 19.5378L12.9144 19.7238C12.8939 19.775 12.872 19.8261 12.8516 19.8788L14.3602 17.25C14.3146 17.3089 14.2738 17.3632 14.2283 17.4221L14.2047 17.4531C13.704 18.0948 13.2974 18.7985 12.9881 19.5394L12.9866 19.5378Z" fill="#5F8FFA"/>
<path d="M23.4781 14.1257L23.3808 14.1056C23.3008 14.0885 23.2176 14.0715 23.1343 14.0576C23.0511 14.0405 22.9821 14.0296 22.9161 14.0203C22.8675 14.0095 22.8188 14.0064 22.7702 14.0002L22.7152 13.994C22.6179 13.98 22.5206 13.9661 22.4232 13.9568L22.3149 13.9459C21.7105 13.8917 21.2553 13.8917 20.6399 13.9459L20.5143 13.9568C20.428 13.9676 20.3369 13.9769 20.2506 13.9909L20.1878 13.9971C20.1282 14.0033 20.0732 14.011 20.0214 14.0203C19.9618 14.0265 19.9068 14.0374 19.8519 14.0482L19.8173 14.0544C19.7169 14.0746 19.6164 14.0917 19.5144 14.1165L19.4202 14.1366L19.417 14.1304L19.3794 14.1474L19.3024 14.1645C19.2569 14.1754 19.2114 14.1847 19.1674 14.1955L19.1329 14.2017C19.0324 14.225 18.9351 14.256 18.8346 14.287C18.7436 14.3149 18.6745 14.3381 18.6054 14.3583L18.4422 14.4125C18.3762 14.4358 18.3213 14.4575 18.2616 14.4776L18.1471 14.5226C17.9665 14.5908 17.7891 14.6667 17.6149 14.7458C17.5285 14.7876 17.4485 14.8248 17.3684 14.8651C17.257 14.9194 17.1628 14.9674 17.0733 15.0155L16.9697 15.0775C16.5914 15.2867 16.2225 15.527 15.8818 15.7905L15.8096 15.8447C15.3653 16.1919 14.9509 16.5794 14.5789 16.9979L14.3952 17.2103L12.8411 19.9104L12.7751 20.1088C12.7547 20.1739 12.7296 20.239 12.7092 20.3072L12.5883 20.7459C12.5679 20.8172 12.5507 20.8869 12.5365 20.9582L12.4769 21.2295H4.43159C3.90413 21.2295 3.47557 20.8079 3.47557 20.2855V10.2492C3.47557 9.90662 3.67023 9.58731 3.97948 9.41836L11.1598 5.64408C11.4204 5.49993 11.7783 5.49683 12.0562 5.64408L19.2255 9.41836C19.5379 9.57956 19.7326 9.89887 19.7326 10.2492V12.1867C20.8722 12.0084 22.0684 12.0084 23.2081 12.1867V10.2492C23.2081 8.63251 22.3086 7.1538 20.8628 6.38964L13.6935 2.61846C13.0373 2.27126 12.3215 2.09766 11.6009 2.09766C10.8804 2.09766 10.1724 2.27281 9.52249 2.61536L2.3453 6.39584C0.899503 7.16 0 8.64026 0 10.2554V20.2917C0 22.7035 1.98738 24.6674 4.43159 24.6674H12.4737L12.5334 24.9355C13.469 29.0291 17.2256 32.0005 21.4719 32.0005C26.5251 32.0005 30.6365 27.941 30.6365 22.9515C30.6365 18.7587 27.6272 15.0449 23.4813 14.1257H23.4781ZM21.4688 28.5688C18.3448 28.5688 15.7939 26.0531 15.7829 22.9686C15.7829 21.1225 16.6934 19.4004 18.2224 18.3464C19.1816 17.6846 20.304 17.3343 21.4688 17.3343C24.6037 17.3343 27.1578 19.853 27.1578 22.9515C27.1578 26.05 24.6037 28.5688 21.4688 28.5688Z" fill="#5F8FFA"/>
<path d="M23.6943 23.6362H20.7744V19.2357H22.1653V22.2644H23.6943V23.6362Z" fill="#5F8FFA"/>
</g>
<defs>
<clipPath id="clip0_4702_224">
<rect width="165" height="32" fill="white"/>
</clipPath>
</defs>
</svg>
