<svg width="21" height="20" viewBox="0 0 21 20" fill="none" xmlns="http://www.w3.org/2000/svg">
<g clipPath="url(#clip0_1575_130982)">
<path d="M20.3052 10.2312C20.3052 9.55141 20.2501 8.86797 20.1325 8.19922H10.7002V12.05H16.1016C15.8775 13.292 15.1573 14.3907 14.1027 15.0888V17.5874H17.3252C19.2176 15.8457 20.3052 13.2736 20.3052 10.2312Z" fill="#4285F4"/>
<path d="M10.7 20.0017C13.3971 20.0017 15.6716 19.1162 17.3287 17.5876L14.1063 15.089C13.2097 15.699 12.0522 16.0444 10.7037 16.0444C8.09486 16.0444 5.88285 14.2843 5.08917 11.918H1.76379V14.4938C3.46139 17.8706 6.91904 20.0017 10.7 20.0017Z" fill="#34A853"/>
<path d="M5.08564 11.9163C4.66676 10.6743 4.66676 9.32947 5.08564 8.0875V5.51172H1.76395C0.345611 8.33737 0.345611 11.6664 1.76395 14.4921L5.08564 11.9163Z" fill="#FBBC04"/>
<path d="M10.6999 3.95805C12.1256 3.936 13.5035 4.47247 14.536 5.45722L17.3911 2.60218C15.5833 0.904587 13.1838 -0.0287217 10.6999 0.000673888C6.91892 0.000673888 3.46126 2.13185 1.76367 5.51234L5.08537 8.08813C5.87537 5.71811 8.09106 3.95805 10.6999 3.95805Z" fill="#EA4335"/>
</g>
<defs>
<clipPath id="clip0_1575_130982">
<rect width="20" height="20" fill="white" transform="translate(0.5)"/>
</clipPath>
</defs>
</svg>
