<svg width="136" height="41" viewBox="0 0 136 41" fill="none" xmlns="http://www.w3.org/2000/svg">
<rect x="0.5" y="0.304565" width="135" height="40" rx="8" fill="#131316"/>
<path d="M67.637 22.0554C65.285 22.0554 63.368 23.8444 63.368 26.3084C63.368 28.7574 65.285 30.5614 67.637 30.5614C69.99 30.5614 71.907 28.7574 71.907 26.3084C71.906 23.8444 69.989 22.0554 67.637 22.0554ZM67.637 28.8874C66.348 28.8874 65.237 27.8244 65.237 26.3094C65.237 24.7784 66.349 23.7314 67.637 23.7314C68.926 23.7314 70.037 24.7784 70.037 26.3094C70.037 27.8234 68.926 28.8874 67.637 28.8874ZM58.323 22.0554C55.971 22.0554 54.054 23.8444 54.054 26.3084C54.054 28.7574 55.971 30.5614 58.323 30.5614C60.676 30.5614 62.593 28.7574 62.593 26.3084C62.593 23.8444 60.676 22.0554 58.323 22.0554ZM58.323 28.8874C57.034 28.8874 55.923 27.8244 55.923 26.3094C55.923 24.7784 57.035 23.7314 58.323 23.7314C59.612 23.7314 60.723 24.7784 60.723 26.3094C60.724 27.8234 59.612 28.8874 58.323 28.8874ZM47.245 23.3614V25.1654H51.563C51.434 26.1804 51.096 26.9214 50.58 27.4364C49.952 28.0644 48.969 28.7574 47.245 28.7574C44.587 28.7574 42.509 26.6144 42.509 23.9564C42.509 21.2984 44.587 19.1554 47.245 19.1554C48.679 19.1554 49.726 19.7194 50.499 20.4444L51.772 19.1714C50.692 18.1404 49.259 17.3514 47.245 17.3514C43.604 17.3514 40.543 20.3154 40.543 23.9564C40.543 27.5974 43.604 30.5614 47.245 30.5614C49.21 30.5614 50.693 29.9164 51.852 28.7084C53.044 27.5164 53.415 25.8404 53.415 24.4874C53.415 24.0694 53.383 23.6824 53.318 23.3604H47.245V23.3614ZM92.553 24.7624C92.199 23.8124 91.119 22.0554 88.912 22.0554C86.721 22.0554 84.9 23.7794 84.9 26.3084C84.9 28.6924 86.705 30.5614 89.121 30.5614C91.07 30.5614 92.198 29.3694 92.666 28.6764L91.216 27.7094C90.733 28.4184 90.072 28.8854 89.121 28.8854C88.171 28.8854 87.494 28.4504 87.059 27.5964L92.746 25.2444L92.553 24.7624ZM86.753 26.1804C86.705 24.5364 88.026 23.6994 88.977 23.6994C89.718 23.6994 90.346 24.0704 90.556 24.6014L86.753 26.1804ZM82.13 30.3044H83.998V17.8034H82.13V30.3044ZM79.068 23.0064H79.004C78.585 22.5064 77.779 22.0554 76.765 22.0554C74.638 22.0554 72.689 23.9244 72.689 26.3254C72.689 28.7094 74.638 30.5624 76.765 30.5624C77.78 30.5624 78.585 30.1114 79.004 29.5964H79.068V30.2084C79.068 31.8354 78.198 32.7054 76.797 32.7054C75.653 32.7054 74.944 31.8844 74.654 31.1914L73.027 31.8684C73.494 32.9954 74.734 34.3814 76.797 34.3814C78.988 34.3814 80.841 33.0924 80.841 29.9504V22.3144H79.069V23.0064H79.068ZM76.926 28.8874C75.637 28.8874 74.558 27.8074 74.558 26.3254C74.558 24.8264 75.637 23.7314 76.926 23.7314C78.198 23.7314 79.197 24.8264 79.197 26.3254C79.197 27.8074 78.198 28.8874 76.926 28.8874ZM101.307 17.8034H96.836V30.3044H98.701V25.5684H101.306C103.374 25.5684 105.408 24.0714 105.408 21.6864C105.408 19.3014 103.375 17.8034 101.307 17.8034ZM101.355 23.8284H98.701V19.5434H101.355C102.75 19.5434 103.542 20.6984 103.542 21.6864C103.542 22.6544 102.75 23.8284 101.355 23.8284ZM112.887 22.0334C111.536 22.0334 110.137 22.6284 109.558 23.9474L111.214 24.6384C111.568 23.9474 112.228 23.7214 112.919 23.7214C113.884 23.7214 114.865 24.3004 114.881 25.3294V25.4584C114.543 25.2654 113.819 24.9764 112.935 24.9764C111.15 24.9764 109.332 25.9574 109.332 27.7904C109.332 29.4634 110.796 30.5404 112.436 30.5404C113.69 30.5404 114.382 29.9774 114.816 29.3174H114.88V30.2824H116.682V25.4894C116.683 23.2714 115.025 22.0334 112.887 22.0334ZM112.661 28.8844C112.051 28.8844 111.198 28.5784 111.198 27.8224C111.198 26.8574 112.26 26.4874 113.177 26.4874C113.996 26.4874 114.383 26.6644 114.881 26.9054C114.736 28.0644 113.739 28.8844 112.661 28.8844ZM123.244 22.3064L121.105 27.7264H121.041L118.821 22.3064H116.811L120.14 29.8814L118.242 34.0954H120.188L125.319 22.3064H123.244ZM106.438 30.3044H108.303V17.8034H106.438V30.3044Z" fill="white"/>
<path d="M46.9176 10.5478C46.9176 11.3858 46.6696 12.0528 46.1726 12.5508C45.6086 13.1428 44.8726 13.4388 43.9686 13.4388C43.1026 13.4388 42.3656 13.1388 41.7606 12.5388C41.1546 11.9378 40.8516 11.1938 40.8516 10.3058C40.8516 9.41675 41.1546 8.67275 41.7606 8.07275C42.3656 7.47175 43.1026 7.17175 43.9686 7.17175C44.3986 7.17175 44.8096 7.25575 45.1996 7.42275C45.5906 7.59075 45.9036 7.81375 46.1376 8.09275L45.6106 8.62075C45.2136 8.14575 44.6666 7.90875 43.9676 7.90875C43.3356 7.90875 42.7896 8.13075 42.3286 8.57475C41.8676 9.01875 41.6376 9.59575 41.6376 10.3048C41.6376 11.0138 41.8676 11.5908 42.3286 12.0348C42.7896 12.4788 43.3356 12.7008 43.9676 12.7008C44.6376 12.7008 45.1966 12.4778 45.6436 12.0308C45.9336 11.7398 46.1016 11.3348 46.1466 10.8158H43.9676V10.0948H46.8746C46.9046 10.2518 46.9176 10.4028 46.9176 10.5478Z" fill="white"/>
<path d="M51.5277 8.04181H48.7957V9.94381H51.2597V10.6648H48.7957V12.5668H51.5277V13.3048H48.0247V7.30481H51.5277V8.04181Z" fill="white"/>
<path d="M54.7785 13.3048H54.0075V8.04181H52.3315V7.30481H56.4545V8.04181H54.7785V13.3048Z" fill="white"/>
<path d="M59.4375 13.3048V7.30481H60.2085V13.3048H59.4375Z" fill="white"/>
<path d="M63.6277 13.3048H62.8567V8.04181H61.1807V7.30481H65.3037V8.04181H63.6277V13.3048Z" fill="white"/>
<path d="M73.1084 12.5298C72.5184 13.1358 71.7854 13.4388 70.9084 13.4388C70.0314 13.4388 69.2984 13.1358 68.7094 12.5298C68.1194 11.9238 67.8254 11.1818 67.8254 10.3048C67.8254 9.4278 68.1194 8.6858 68.7094 8.0798C69.2984 7.4738 70.0314 7.1698 70.9084 7.1698C71.7804 7.1698 72.5124 7.4748 73.1044 8.0838C73.6964 8.6928 73.9924 9.4328 73.9924 10.3048C73.9924 11.1818 73.6974 11.9238 73.1084 12.5298ZM69.2784 12.0268C69.7224 12.4768 70.2654 12.7008 70.9084 12.7008C71.5514 12.7008 72.0954 12.4758 72.5384 12.0268C72.9824 11.5768 73.2054 11.0028 73.2054 10.3048C73.2054 9.6068 72.9824 9.0328 72.5384 8.5828C72.0954 8.1328 71.5514 7.9088 70.9084 7.9088C70.2654 7.9088 69.7224 8.1338 69.2784 8.5828C68.8354 9.0328 68.6124 9.6068 68.6124 10.3048C68.6124 11.0028 68.8354 11.5768 69.2784 12.0268Z" fill="white"/>
<path d="M75.0745 13.3048V7.30481H76.0125L78.9285 11.9718H78.9615L78.9285 10.8158V7.30481H79.6995V13.3048H78.8945L75.8435 8.41081H75.8105L75.8435 9.56681V13.3048H75.0745Z" fill="white"/>
<path d="M46.9176 10.5478C46.9176 11.3858 46.6696 12.0528 46.1726 12.5508C45.6086 13.1428 44.8726 13.4388 43.9686 13.4388C43.1026 13.4388 42.3656 13.1388 41.7606 12.5388C41.1546 11.9378 40.8516 11.1938 40.8516 10.3058C40.8516 9.41675 41.1546 8.67275 41.7606 8.07275C42.3656 7.47175 43.1026 7.17175 43.9686 7.17175C44.3986 7.17175 44.8096 7.25575 45.1996 7.42275C45.5906 7.59075 45.9036 7.81375 46.1376 8.09275L45.6106 8.62075C45.2136 8.14575 44.6666 7.90875 43.9676 7.90875C43.3356 7.90875 42.7896 8.13075 42.3286 8.57475C41.8676 9.01875 41.6376 9.59575 41.6376 10.3048C41.6376 11.0138 41.8676 11.5908 42.3286 12.0348C42.7896 12.4788 43.3356 12.7008 43.9676 12.7008C44.6376 12.7008 45.1966 12.4778 45.6436 12.0308C45.9336 11.7398 46.1016 11.3348 46.1466 10.8158H43.9676V10.0948H46.8746C46.9046 10.2518 46.9176 10.4028 46.9176 10.5478Z" stroke="white" stroke-width="0.2" stroke-miterlimit="10"/>
<path d="M51.5277 8.04181H48.7957V9.94381H51.2597V10.6648H48.7957V12.5668H51.5277V13.3048H48.0247V7.30481H51.5277V8.04181Z" stroke="white" stroke-width="0.2" stroke-miterlimit="10"/>
<path d="M54.7785 13.3048H54.0075V8.04181H52.3315V7.30481H56.4545V8.04181H54.7785V13.3048Z" stroke="white" stroke-width="0.2" stroke-miterlimit="10"/>
<path d="M59.4375 13.3048V7.30481H60.2085V13.3048H59.4375Z" stroke="white" stroke-width="0.2" stroke-miterlimit="10"/>
<path d="M63.6277 13.3048H62.8567V8.04181H61.1807V7.30481H65.3037V8.04181H63.6277V13.3048Z" stroke="white" stroke-width="0.2" stroke-miterlimit="10"/>
<path d="M73.1084 12.5298C72.5184 13.1358 71.7854 13.4388 70.9084 13.4388C70.0314 13.4388 69.2984 13.1358 68.7094 12.5298C68.1194 11.9238 67.8254 11.1818 67.8254 10.3048C67.8254 9.4278 68.1194 8.6858 68.7094 8.0798C69.2984 7.4738 70.0314 7.1698 70.9084 7.1698C71.7804 7.1698 72.5124 7.4748 73.1044 8.0838C73.6964 8.6928 73.9924 9.4328 73.9924 10.3048C73.9924 11.1818 73.6974 11.9238 73.1084 12.5298ZM69.2784 12.0268C69.7224 12.4768 70.2654 12.7008 70.9084 12.7008C71.5514 12.7008 72.0954 12.4758 72.5384 12.0268C72.9824 11.5768 73.2054 11.0028 73.2054 10.3048C73.2054 9.6068 72.9824 9.0328 72.5384 8.5828C72.0954 8.1328 71.5514 7.9088 70.9084 7.9088C70.2654 7.9088 69.7224 8.1338 69.2784 8.5828C68.8354 9.0328 68.6124 9.6068 68.6124 10.3048C68.6124 11.0028 68.8354 11.5768 69.2784 12.0268Z" stroke="white" stroke-width="0.2" stroke-miterlimit="10"/>
<path d="M75.0745 13.3048V7.30481H76.0125L78.9285 11.9718H78.9615L78.9285 10.8158V7.30481H79.6995V13.3048H78.8945L75.8435 8.41081H75.8105L75.8435 9.56681V13.3048H75.0745Z" stroke="white" stroke-width="0.2" stroke-miterlimit="10"/>
<g filter="url(#filter0_ii_3071_61119)">
<path d="M13.4303 9.62992C13.1918 9.88236 13.0508 10.2741 13.0508 10.7815V28.9084C13.0508 29.4166 13.1918 29.8076 13.4303 30.06L13.4909 30.119L23.6453 19.9646V19.845V19.7253L13.4909 9.57008L13.4303 9.62992Z" fill="url(#paint0_linear_3071_61119)"/>
<path d="M27.0315 23.3508L23.6472 19.9649V19.8452V19.7255L27.0323 16.3405L27.1085 16.3839L31.119 18.6625C32.264 19.3133 32.264 20.378 31.119 21.0296L27.1085 23.3081L27.0315 23.3508Z" fill="url(#paint1_linear_3071_61119)"/>
<g filter="url(#filter1_i_3071_61119)">
<path d="M27.1085 23.3072L23.6464 19.8451L13.4321 30.0601C13.8092 30.4601 14.4329 30.5093 15.1353 30.111L27.1085 23.3072Z" fill="url(#paint2_linear_3071_61119)"/>
</g>
<path d="M27.1085 16.383L15.1353 9.58002C14.4329 9.18086 13.8092 9.23086 13.4321 9.63084L23.6472 19.8459L27.1085 16.383Z" fill="url(#paint3_linear_3071_61119)"/>
</g>
<defs>
<filter id="filter0_ii_3071_61119" x="13.0508" y="9.30457" width="18.927" height="21.0815" filterUnits="userSpaceOnUse" color-interpolation-filters="sRGB">
<feFlood flood-opacity="0" result="BackgroundImageFix"/>
<feBlend mode="normal" in="SourceGraphic" in2="BackgroundImageFix" result="shape"/>
<feColorMatrix in="SourceAlpha" type="matrix" values="0 0 0 0 0 0 0 0 0 0 0 0 0 0 0 0 0 0 127 0" result="hardAlpha"/>
<feOffset dy="-0.15"/>
<feComposite in2="hardAlpha" operator="arithmetic" k2="-1" k3="1"/>
<feColorMatrix type="matrix" values="0 0 0 0 0 0 0 0 0 0 0 0 0 0 0 0 0 0 0.12 0"/>
<feBlend mode="normal" in2="shape" result="effect1_innerShadow_3071_61119"/>
<feColorMatrix in="SourceAlpha" type="matrix" values="0 0 0 0 0 0 0 0 0 0 0 0 0 0 0 0 0 0 127 0" result="hardAlpha"/>
<feOffset dy="0.15"/>
<feComposite in2="hardAlpha" operator="arithmetic" k2="-1" k3="1"/>
<feColorMatrix type="matrix" values="0 0 0 0 1 0 0 0 0 1 0 0 0 0 1 0 0 0 0.25 0"/>
<feBlend mode="normal" in2="effect1_innerShadow_3071_61119" result="effect2_innerShadow_3071_61119"/>
</filter>
<filter id="filter1_i_3071_61119" x="13.4321" y="19.8451" width="13.6763" height="10.541" filterUnits="userSpaceOnUse" color-interpolation-filters="sRGB">
<feFlood flood-opacity="0" result="BackgroundImageFix"/>
<feBlend mode="normal" in="SourceGraphic" in2="BackgroundImageFix" result="shape"/>
<feColorMatrix in="SourceAlpha" type="matrix" values="0 0 0 0 0 0 0 0 0 0 0 0 0 0 0 0 0 0 127 0" result="hardAlpha"/>
<feOffset dy="-0.15"/>
<feComposite in2="hardAlpha" operator="arithmetic" k2="-1" k3="1"/>
<feColorMatrix type="matrix" values="0 0 0 0 0 0 0 0 0 0 0 0 0 0 0 0 0 0 0.08 0"/>
<feBlend mode="normal" in2="shape" result="effect1_innerShadow_3071_61119"/>
</filter>
<linearGradient id="paint0_linear_3071_61119" x1="22.7452" y1="10.5897" x2="8.99017" y2="24.3447" gradientUnits="userSpaceOnUse">
<stop stop-color="#00A0FF"/>
<stop offset="0.0066" stop-color="#00A1FF"/>
<stop offset="0.2601" stop-color="#00BEFF"/>
<stop offset="0.5122" stop-color="#00D2FF"/>
<stop offset="0.7604" stop-color="#00DFFF"/>
<stop offset="1" stop-color="#00E3FF"/>
</linearGradient>
<linearGradient id="paint1_linear_3071_61119" x1="32.6095" y1="19.8452" x2="12.7778" y2="19.8452" gradientUnits="userSpaceOnUse">
<stop stop-color="#FFE000"/>
<stop offset="0.4087" stop-color="#FFBD00"/>
<stop offset="0.7754" stop-color="#FFA500"/>
<stop offset="1" stop-color="#FF9C00"/>
</linearGradient>
<linearGradient id="paint2_linear_3071_61119" x1="25.2283" y1="21.7252" x2="6.57477" y2="40.3788" gradientUnits="userSpaceOnUse">
<stop stop-color="#FF3A44"/>
<stop offset="1" stop-color="#C31162"/>
</linearGradient>
<linearGradient id="paint3_linear_3071_61119" x1="10.8596" y1="3.59656" x2="19.189" y2="11.9259" gradientUnits="userSpaceOnUse">
<stop stop-color="#32A071"/>
<stop offset="0.0685" stop-color="#2DA771"/>
<stop offset="0.4762" stop-color="#15CF74"/>
<stop offset="0.8009" stop-color="#06E775"/>
<stop offset="1" stop-color="#00F076"/>
</linearGradient>
</defs>
</svg>
