<svg width="16" height="17" viewBox="0 0 16 17" fill="none" xmlns="http://www.w3.org/2000/svg">
<path fill-rule="evenodd" clip-rule="evenodd" d="M5.25143 1.67791C5.96234 1.64518 6.18901 1.63791 7.99992 1.63791C9.81083 1.63791 10.0375 1.64579 10.7478 1.67791C11.4581 1.71003 11.9429 1.82336 12.3672 1.98761C12.8114 2.15548 13.2145 2.41791 13.5478 2.7573C13.8872 3.09003 14.149 3.49245 14.3163 3.9373C14.4811 4.36155 14.5939 4.84639 14.6266 5.55549C14.6593 6.26761 14.6666 6.49427 14.6666 8.30458C14.6666 10.1155 14.6587 10.3422 14.6266 11.0531C14.5945 11.7622 14.4811 12.247 14.3163 12.6712C14.149 13.1161 13.8868 13.5192 13.5478 13.8525C13.2145 14.1918 12.8114 14.4537 12.3672 14.6209C11.9429 14.7858 11.4581 14.8985 10.749 14.9312C10.0375 14.964 9.81083 14.9712 7.99992 14.9712C6.18901 14.9712 5.96234 14.9634 5.25143 14.9312C4.54234 14.8991 4.05749 14.7858 3.63325 14.6209C3.18836 14.4536 2.78526 14.1914 2.45204 13.8525C2.11288 13.5195 1.85041 13.1166 1.68295 12.6718C1.51871 12.2476 1.40598 11.7628 1.37325 11.0537C1.34052 10.3415 1.33325 10.1149 1.33325 8.30458C1.33325 6.49367 1.34113 6.267 1.37325 5.5567C1.40537 4.84639 1.51871 4.36155 1.68295 3.9373C1.85066 3.4925 2.11332 3.08961 2.45265 2.7567C2.7854 2.41761 3.18808 2.15515 3.63265 1.98761C4.05689 1.82336 4.54174 1.71064 5.25083 1.67791H5.25143ZM10.6939 2.87791C9.99083 2.84579 9.77992 2.83912 7.99992 2.83912C6.21992 2.83912 6.00901 2.84579 5.30598 2.87791C4.65568 2.90761 4.30295 3.01609 4.0678 3.10761C3.75689 3.22882 3.53446 3.37245 3.30113 3.60579C3.07995 3.82097 2.90972 4.08293 2.80295 4.37245C2.71143 4.60761 2.60295 4.96033 2.57325 5.61064C2.54113 6.31367 2.53446 6.52458 2.53446 8.30458C2.53446 10.0846 2.54113 10.2955 2.57325 10.9985C2.60295 11.6488 2.71143 12.0015 2.80295 12.2367C2.90962 12.5258 3.07992 12.7882 3.30113 13.0034C3.51628 13.2246 3.77871 13.3949 4.0678 13.5015C4.30295 13.5931 4.65568 13.7015 5.30598 13.7312C6.00901 13.7634 6.21931 13.77 7.99992 13.77C9.78053 13.77 9.99083 13.7634 10.6939 13.7312C11.3442 13.7015 11.6969 13.5931 11.932 13.5015C12.2429 13.3803 12.4654 13.2367 12.6987 13.0034C12.9199 12.7882 13.0902 12.5258 13.1969 12.2367C13.2884 12.0015 13.3969 11.6488 13.4266 10.9985C13.4587 10.2955 13.4654 10.0846 13.4654 8.30458C13.4654 6.52458 13.4587 6.31367 13.4266 5.61064C13.3969 4.96033 13.2884 4.60761 13.1969 4.37245C13.0757 4.06155 12.932 3.83912 12.6987 3.60579C12.4835 3.38462 12.2216 3.2144 11.932 3.10761C11.6969 3.01609 11.3442 2.90761 10.6939 2.87791ZM7.1484 10.3597C7.62395 10.5577 8.15348 10.5844 8.64654 10.4353C9.1396 10.2862 9.56561 9.97059 9.8518 9.5423C10.138 9.11401 10.2666 8.59965 10.2157 8.08706C10.1648 7.57448 9.9375 7.09547 9.57265 6.73185C9.34006 6.49941 9.05884 6.32143 8.74921 6.21073C8.43959 6.10002 8.10927 6.05934 7.78204 6.09162C7.4548 6.12389 7.1388 6.22832 6.85677 6.39738C6.57474 6.56644 6.3337 6.79594 6.15101 7.06933C5.96832 7.34273 5.84852 7.65324 5.80023 7.97849C5.75194 8.30375 5.77637 8.63566 5.87176 8.95034C5.96715 9.26502 6.13112 9.55464 6.35187 9.79835C6.57262 10.0421 6.84466 10.2338 7.1484 10.3597ZM5.57689 5.88155C5.89509 5.56335 6.27284 5.31094 6.68858 5.13873C7.10433 4.96653 7.54992 4.87789 7.99992 4.87789C8.44992 4.87789 8.89551 4.96653 9.31125 5.13873C9.727 5.31094 10.1048 5.56335 10.4229 5.88155C10.7411 6.19974 10.9936 6.5775 11.1658 6.99324C11.338 7.40899 11.4266 7.85458 11.4266 8.30458C11.4266 8.75457 11.338 9.20017 11.1658 9.61591C10.9936 10.0317 10.7411 10.4094 10.4229 10.7276C9.78032 11.3702 8.90873 11.7313 7.99992 11.7313C7.09111 11.7313 6.21952 11.3702 5.57689 10.7276C4.93426 10.085 4.57324 9.21339 4.57324 8.30458C4.57324 7.39576 4.93426 6.52417 5.57689 5.88155ZM12.1866 5.38821C12.2654 5.31383 12.3286 5.22438 12.3722 5.12517C12.4159 5.02595 12.4392 4.91898 12.4408 4.81059C12.4424 4.70221 12.4222 4.5946 12.3814 4.49416C12.3407 4.39371 12.2802 4.30246 12.2035 4.22581C12.1269 4.14916 12.0356 4.08867 11.9352 4.04792C11.8347 4.00717 11.7271 3.98699 11.6187 3.98857C11.5104 3.99015 11.4034 4.01346 11.3042 4.05712C11.205 4.10078 11.1155 4.16391 11.0411 4.24276C10.8965 4.39611 10.8173 4.5998 10.8203 4.81059C10.8234 5.02139 10.9085 5.22268 11.0576 5.37175C11.2067 5.52082 11.408 5.60593 11.6187 5.609C11.8295 5.61207 12.0332 5.53287 12.1866 5.38821Z" fill="#3E3C37"/>
</svg>
