<svg width="27" height="21" viewBox="0 0 27 21" fill="none" xmlns="http://www.w3.org/2000/svg">
<path d="M4.21338 20.7769C3.14535 20.7769 2.34017 20.5085 1.79785 19.9717C1.25553 19.4349 0.984375 18.638 0.984375 17.5811V6.3418C0.984375 5.28483 1.25553 4.48796 1.79785 3.95117C2.34017 3.41439 3.14535 3.146 4.21338 3.146H7.20166C7.48389 3.146 7.71077 3.12663 7.88232 3.08789C8.05941 3.04915 8.21712 2.97998 8.35547 2.88037C8.49382 2.77523 8.64323 2.63135 8.80371 2.44873L9.68359 1.46094C9.86621 1.26172 10.0544 1.09847 10.248 0.971191C10.4417 0.838379 10.6631 0.741536 10.9121 0.680664C11.1611 0.614258 11.4655 0.581055 11.8252 0.581055H16.042C16.4017 0.581055 16.7061 0.614258 16.9551 0.680664C17.2096 0.741536 17.431 0.838379 17.6191 0.971191C17.8128 1.09847 18.001 1.26172 18.1836 1.46094L19.0635 2.44873C19.2295 2.63688 19.3789 2.78076 19.5117 2.88037C19.6501 2.97998 19.805 3.04915 19.9766 3.08789C20.1536 3.12663 20.3833 3.146 20.6655 3.146H23.7783C24.8464 3.146 25.6515 3.41439 26.1938 3.95117C26.7362 4.48796 27.0073 5.28483 27.0073 6.3418V17.5811C27.0073 18.638 26.7362 19.4349 26.1938 19.9717C25.6515 20.5085 24.8464 20.7769 23.7783 20.7769H4.21338ZM4.24658 19.3076H23.7534C24.3179 19.3076 24.755 19.1554 25.0649 18.8511C25.3804 18.5467 25.5381 18.0985 25.5381 17.5063V6.4248C25.5381 5.82715 25.3804 5.37614 25.0649 5.07178C24.755 4.76742 24.3179 4.61523 23.7534 4.61523H20.3335C20.007 4.61523 19.7275 4.59587 19.4951 4.55713C19.2627 4.51286 19.0524 4.43538 18.8643 4.32471C18.6816 4.2085 18.499 4.04801 18.3164 3.84326L17.4531 2.88037C17.2484 2.65348 17.063 2.48193 16.897 2.36572C16.7365 2.24398 16.5594 2.16097 16.3657 2.1167C16.172 2.07243 15.923 2.05029 15.6187 2.05029H12.2485C11.9442 2.05029 11.6951 2.07243 11.5015 2.1167C11.3078 2.16097 11.1279 2.24398 10.9619 2.36572C10.8014 2.48193 10.6188 2.65348 10.4141 2.88037L9.55078 3.84326C9.36816 4.04801 9.18278 4.2085 8.99463 4.32471C8.81201 4.43538 8.60449 4.51286 8.37207 4.55713C8.13965 4.59587 7.86296 4.61523 7.54199 4.61523H4.24658C3.6766 4.61523 3.23389 4.76742 2.91846 5.07178C2.60856 5.37614 2.45361 5.82715 2.45361 6.4248V17.5063C2.45361 18.0985 2.60856 18.5467 2.91846 18.8511C3.23389 19.1554 3.6766 19.3076 4.24658 19.3076ZM14 17.6558C13.1865 17.6558 12.4229 17.5036 11.709 17.1992C11.0007 16.9004 10.3781 16.4826 9.84131 15.9458C9.30452 15.4035 8.88395 14.7782 8.57959 14.0698C8.28076 13.356 8.13135 12.5895 8.13135 11.7705C8.13135 10.957 8.28076 10.1934 8.57959 9.47949C8.88395 8.76562 9.30452 8.1403 9.84131 7.60352C10.3781 7.06673 11.0007 6.64893 11.709 6.3501C12.4229 6.04574 13.1865 5.89355 14 5.89355C14.8135 5.89355 15.5744 6.04574 16.2827 6.3501C16.9966 6.64893 17.6219 7.06673 18.1587 7.60352C18.6955 8.1403 19.1133 8.76562 19.4121 9.47949C19.7165 10.1934 19.8687 10.957 19.8687 11.7705C19.8687 12.5895 19.7165 13.356 19.4121 14.0698C19.1077 14.7782 18.6872 15.4035 18.1504 15.9458C17.6136 16.4826 16.991 16.9004 16.2827 17.1992C15.5744 17.5036 14.8135 17.6558 14 17.6558ZM14 16.2529C14.6143 16.2529 15.1925 16.1395 15.7349 15.9126C16.2772 15.6802 16.7531 15.3592 17.1626 14.9497C17.5721 14.5347 17.8903 14.0588 18.1172 13.522C18.3496 12.9797 18.4658 12.3958 18.4658 11.7705C18.4658 11.1507 18.3496 10.5697 18.1172 10.0273C17.8903 9.48503 17.5721 9.00911 17.1626 8.59961C16.7531 8.1901 16.2772 7.87191 15.7349 7.64502C15.1925 7.4126 14.6143 7.29639 14 7.29639C13.3802 7.29639 12.7992 7.4126 12.2568 7.64502C11.7201 7.87191 11.2469 8.1901 10.8374 8.59961C10.4279 9.00911 10.1069 9.48503 9.87451 10.0273C9.64209 10.5697 9.52588 11.1507 9.52588 11.7705C9.52588 12.3958 9.64209 12.9797 9.87451 13.522C10.1069 14.0588 10.4279 14.5347 10.8374 14.9497C11.2469 15.3592 11.7201 15.6802 12.2568 15.9126C12.7992 16.1395 13.3802 16.2529 14 16.2529ZM20.3501 7.84424C20.3501 7.49561 20.4801 7.19124 20.7402 6.93115C21.0003 6.67106 21.3102 6.54102 21.6699 6.54102C22.0186 6.54102 22.3229 6.67106 22.583 6.93115C22.8431 7.19124 22.9731 7.49561 22.9731 7.84424C22.9731 8.20947 22.8431 8.51937 22.583 8.77393C22.3229 9.02295 22.0186 9.14746 21.6699 9.14746C21.3102 9.14746 21.0003 9.02295 20.7402 8.77393C20.4801 8.5249 20.3501 8.21501 20.3501 7.84424Z" fill="black"/>
</svg>
