<svg width="28" height="22" viewBox="0 0 28 22" fill="none" xmlns="http://www.w3.org/2000/svg">
<path d="M9.19385 21.1587C8.29183 21.1587 7.6084 20.9318 7.14355 20.478C6.67871 20.0243 6.44629 19.3491 6.44629 18.4526L10.0156 15.3149C10.2204 15.1323 10.4224 14.9967 10.6216 14.9082C10.8263 14.8141 11.0366 14.7671 11.2524 14.7671C11.4904 14.7671 11.7173 14.8141 11.9331 14.9082C12.1489 14.9967 12.362 15.1351 12.5723 15.3232L14.2739 16.8755L18.6152 13.0571C18.8477 12.8524 19.0828 12.703 19.3208 12.6089C19.5588 12.5093 19.8161 12.4595 20.0928 12.4595C20.3639 12.4595 20.624 12.512 20.873 12.6172C21.1276 12.7168 21.3628 12.8662 21.5786 13.0654L26.5093 17.6973V18.4443C26.5093 19.3464 26.2769 20.0243 25.812 20.478C25.3527 20.9318 24.672 21.1587 23.77 21.1587H9.19385ZM13.5518 13.2729C13.1312 13.2729 12.7493 13.1706 12.4062 12.9658C12.0632 12.7555 11.7892 12.4761 11.5845 12.1274C11.3797 11.7788 11.2773 11.3942 11.2773 10.9736C11.2773 10.5586 11.3797 10.1795 11.5845 9.83643C11.7892 9.48779 12.0632 9.2111 12.4062 9.00635C12.7493 8.79606 13.1312 8.69092 13.5518 8.69092C13.9723 8.69092 14.3542 8.79606 14.6973 9.00635C15.0404 9.2111 15.3143 9.48779 15.519 9.83643C15.7238 10.1795 15.8262 10.5586 15.8262 10.9736C15.8262 11.3942 15.7238 11.7788 15.519 12.1274C15.3143 12.4761 15.0404 12.7555 14.6973 12.9658C14.3542 13.1706 13.9723 13.2729 13.5518 13.2729ZM4.02246 16.9004C2.94889 16.9004 2.14095 16.6348 1.59863 16.1035C1.06185 15.5667 0.793457 14.7671 0.793457 13.7046V3.54443C0.793457 2.48193 1.06185 1.68506 1.59863 1.15381C2.14095 0.617025 2.94889 0.348633 4.02246 0.348633H18.5986C19.6722 0.348633 20.4774 0.617025 21.0142 1.15381C21.5565 1.69059 21.8276 2.48747 21.8276 3.54443V5.71924H20.3584V3.62744C20.3584 3.02979 20.2007 2.57878 19.8853 2.27441C19.5754 1.97005 19.1382 1.81787 18.5737 1.81787H4.05566C3.47461 1.81787 3.02913 1.97005 2.71924 2.27441C2.41488 2.57878 2.2627 3.02979 2.2627 3.62744V13.6216C2.2627 14.2192 2.41488 14.6702 2.71924 14.9746C3.02913 15.279 3.47461 15.4312 4.05566 15.4312H6.5708V16.9004H4.02246ZM9.17725 21.6733C8.10368 21.6733 7.29574 21.4049 6.75342 20.8682C6.21663 20.3369 5.94824 19.54 5.94824 18.4775V8.31738C5.94824 7.26042 6.21663 6.46354 6.75342 5.92676C7.29574 5.38997 8.10368 5.12158 9.17725 5.12158H23.9609C25.0345 5.12158 25.8424 5.38997 26.3848 5.92676C26.9271 6.46354 27.1982 7.26042 27.1982 8.31738V18.4775C27.1982 19.5345 26.9271 20.3314 26.3848 20.8682C25.8424 21.4049 25.0345 21.6733 23.9609 21.6733H9.17725ZM9.20215 20.2041H23.936C24.506 20.2041 24.946 20.0519 25.2559 19.7476C25.5658 19.4432 25.7207 18.995 25.7207 18.4028V8.40039C25.7207 7.80273 25.5658 7.35173 25.2559 7.04736C24.946 6.743 24.506 6.59082 23.936 6.59082H9.20215C8.62663 6.59082 8.18392 6.743 7.87402 7.04736C7.56966 7.35173 7.41748 7.80273 7.41748 8.40039V18.4028C7.41748 18.995 7.56966 19.4432 7.87402 19.7476C8.18392 20.0519 8.62663 20.2041 9.20215 20.2041Z" fill="black"/>
</svg>
