<svg width="16" height="17" viewBox="0 0 16 17" fill="none" xmlns="http://www.w3.org/2000/svg">
<path fill-rule="evenodd" clip-rule="evenodd" d="M6.28592 6.28391H8.76192V7.51724C9.11859 6.80791 10.0333 6.17058 11.4073 6.17058C14.0413 6.17058 14.6666 7.58258 14.6666 10.1732V14.9712H11.9999V10.7632C11.9999 9.28791 11.6433 8.45591 10.7353 8.45591C9.47592 8.45591 8.95259 9.35258 8.95259 10.7626V14.9712H6.28592V6.28391ZM1.71325 14.8579H4.37992V6.17058H1.71325V14.8579ZM4.76192 3.33791C4.76202 3.56143 4.71769 3.78273 4.63151 3.98897C4.54533 4.1952 4.41902 4.38225 4.25992 4.53924C3.93752 4.85966 3.50113 5.03901 3.04659 5.03791C2.59285 5.0376 2.15746 4.85871 1.83459 4.53991C1.67606 4.38238 1.55018 4.19512 1.46415 3.98886C1.37812 3.7826 1.33364 3.56139 1.33325 3.33791C1.33325 2.88658 1.51325 2.45458 1.83525 2.13591C2.15784 1.81668 2.59341 1.63771 3.04725 1.63791C3.50192 1.63791 3.93792 1.81724 4.25992 2.13591C4.58125 2.45458 4.76192 2.88658 4.76192 3.33791Z" fill="#3E3C37"/>
</svg>
