<svg width="16" height="16" viewBox="0 0 16 16" fill="none" xmlns="http://www.w3.org/2000/svg">
<path fill-rule="evenodd" clip-rule="evenodd" d="M7.52732 14.4707L7.99999 14L7.52732 14.4707ZM7.99999 14L8.47199 14.4707C8.41005 14.5328 8.33644 14.5822 8.25539 14.6159C8.17433 14.6495 8.08743 14.6669 7.99966 14.6669C7.91189 14.6669 7.82498 14.6495 7.74393 14.6159C7.66287 14.5822 7.58926 14.5328 7.52732 14.4707L7.52332 14.466L7.51199 14.4547L7.47066 14.4127C7.23565 14.1706 7.00451 13.9248 6.77732 13.6753C6.20692 13.0503 5.66074 12.4036 5.13999 11.7367C4.54532 10.97 3.93732 10.1033 3.47532 9.24733C3.02332 8.408 2.66666 7.49866 2.66666 6.66666C2.66666 3.64066 5.06132 1.33333 7.99999 1.33333C10.9387 1.33333 13.3333 3.64066 13.3333 6.66666C13.3333 7.49866 12.9767 8.408 12.5247 9.24666C12.0627 10.104 11.4553 10.97 10.86 11.7367C10.1316 12.6698 9.35357 13.563 8.52932 14.4127L8.48799 14.4547L8.47666 14.466L8.47266 14.47L7.99999 14ZM7.99999 8.66666C8.53042 8.66666 9.03913 8.45595 9.4142 8.08088C9.78928 7.7058 9.99999 7.19709 9.99999 6.66666C9.99999 6.13623 9.78928 5.62752 9.4142 5.25245C9.03913 4.87738 8.53042 4.66666 7.99999 4.66666C7.46956 4.66666 6.96085 4.87738 6.58578 5.25245C6.2107 5.62752 5.99999 6.13623 5.99999 6.66666C5.99999 7.19709 6.2107 7.7058 6.58578 8.08088C6.96085 8.45595 7.46956 8.66666 7.99999 8.66666Z" fill="#131316"/>
</svg>
