<svg xmlns="http://www.w3.org/2000/svg" viewBox="0 0 1089.62 232.05"><defs><style>.cls-1{fill:#131316;}.cls-2{fill:#5f8ffa;}</style></defs><g id="Шар_2" data-name="Шар 2"><g id="Шар_1-2" data-name="Шар 1"><path class="cls-1" d="M313.69,63.75c-11.53,0-23.43,2.65-35.72,6.43V91.53c14.18-5.1,24.19-7.18,33.08-7.18,14,0,20.79,5.48,21.92,18.9L299.14,114.4c-16.82,5.48-26.65,16.26-26.65,31.19,0,16.06,11.34,28.53,30.62,28.53,13.61,0,24.57-6.42,30.62-16.82v14.56h21.73V107.6C355.46,81.71,343,63.75,313.69,63.75ZM333.16,135c0,13-10.77,21.93-22.3,21.93-9.64,0-15.88-6.05-15.88-13.8,0-6.8,4.73-11.91,13.61-14.74l24.57-7.94Z"/><path class="cls-1" d="M407.7,39.18l-22.3,6.24V66H369.34v20H385.4v55c0,21.36,8.51,31.94,31,31.94a104.81,104.81,0,0,0,17.39-1.7v-20.6a60.73,60.73,0,0,1-13.23,1.51c-9.45,0-12.86-2.83-12.86-14.17v-52H434V66H407.7Z"/><polygon class="cls-1" points="532.9 93.23 475.83 93.23 475.83 39.56 453.34 39.56 453.34 171.86 475.83 171.86 475.83 114.4 532.9 114.4 532.9 171.86 555.39 171.86 555.39 39.56 532.9 39.56 532.9 93.23"/><path class="cls-1" d="M628.8,63.75c-32.13,0-55,24-55,55.19s22.86,55.18,55,55.18c32.32,0,55-24,55-55.18S661.12,63.75,628.8,63.75Zm0,89.58c-19.84,0-32.5-14.93-32.5-34.39s12.66-34.4,32.5-34.4c20,0,32.51,14.93,32.51,34.4S648.84,153.33,628.8,153.33Z"/><path class="cls-1" d="M820,63.75c-14.56,0-27.6,7.75-33.08,23.25-5.29-15.5-18-23.25-32.5-23.25-14.18,0-25.9,7.18-31.19,21.74V66H701.27V171.86h22.3V110.05c0-15.68,7.37-27,22.68-27,14.36,0,21.17,10,21.17,25v63.88h22.3V110.05c0-15.68,7.18-27,22.49-27,14.36,0,21.17,10,21.17,25v63.88h22.3V105.33C855.68,77.36,839.42,63.75,820,63.75Z"/><path class="cls-1" d="M925.3,63.75c-31.75,0-52.35,23.81-52.35,55.19,0,31.94,21.74,55.18,57.27,55.18a83.33,83.33,0,0,0,36.28-8.5V143.88q-17.57,10.22-34.58,10.21c-22.3,0-34-12.47-35.72-26.65h77.49a80.12,80.12,0,0,0,.94-12.28C974.63,87.56,956.87,63.75,925.3,63.75Zm-29.1,46.87c1.13-14.93,10.39-27.4,28.72-27.4,17.77,0,26.28,11.72,27.22,27.4Z"/><path class="cls-1" d="M1089.62,115.16c0-27.6-17.76-51.41-49.33-51.41-31.75,0-52.35,23.81-52.35,55.19,0,31.94,21.74,55.18,57.27,55.18a83.33,83.33,0,0,0,36.28-8.5V143.88q-17.57,10.22-34.58,10.21c-22.3,0-34-12.47-35.72-26.65h77.49A80.12,80.12,0,0,0,1089.62,115.16Zm-78.43-4.54c1.13-14.93,10.39-27.4,28.73-27.4,17.76,0,26.27,11.72,27.21,27.4Z"/><path class="cls-2" d="M195.15,32A114.94,114.94,0,0,0,115.48,0h0A114.71,114.71,0,0,0,33,34.59C11.59,56.44,0,86.1,0,116.71v3c0,26.39,6.31,49.74,18.76,69.41a110.09,110.09,0,0,0,49.18,42,11.08,11.08,0,0,0,14.48-5.23,11.33,11.33,0,0,0-5.21-15.17l-.57-.28c-34.46-15.23-54.21-48.27-54.21-90.7v-3c0-25,9.49-49.2,27.12-66.89a92.38,92.38,0,0,1,65.89-27.36h0a92.78,92.78,0,0,1,92.86,88.4c-.05,18.43-7.16,33.69-20.55,44.17-17.16,13.43-43.64,17.87-69.12,11.58-17.13-4.24-34.48-18.08-34.48-36.34V100.41l31.25-19.63,31,19.48v32.2a11.22,11.22,0,0,0,11.22,11.22h0a11.22,11.22,0,0,0,11.22-11.22V94.06a11.2,11.2,0,0,0-5.25-9.49L121.42,58a11.17,11.17,0,0,0-12,0L67,84.73a11.17,11.17,0,0,0-5.24,9.49v36c0,14.22,5.71,27.53,16.52,38.49a75,75,0,0,0,35,19.62,119.54,119.54,0,0,0,28.64,3.53c22.46,0,43.61-6.63,59.68-19.22a74.17,74.17,0,0,0,21.27-26.16,81.42,81.42,0,0,0,7.9-35.92c0-.17,0-.34,0-.51A114.71,114.71,0,0,0,195.15,32Z"/></g></g></svg>