<svg width="121" height="120" viewBox="0 0 121 120" fill="none" xmlns="http://www.w3.org/2000/svg">
<rect x="0.5" width="120" height="120" rx="60" fill="#F4F4F5"/>
<mask id="mask0_208_9262" style="mask-type:alpha" maskUnits="userSpaceOnUse" x="28" y="28" width="65" height="64">
<rect x="28.5" y="28" width="64" height="64" fill="#D9D9D9"/>
</mask>
<g mask="url(#mask0_208_9262)">
<path d="M60.4993 60.0013C57.566 60.0013 55.0549 58.9569 52.966 56.868C50.8771 54.7791 49.8327 52.268 49.8327 49.3346C49.8327 46.4013 50.8771 43.8902 52.966 41.8013C55.0549 39.7124 57.566 38.668 60.4993 38.668C63.4327 38.668 65.9438 39.7124 68.0327 41.8013C70.1216 43.8902 71.166 46.4013 71.166 49.3346C71.166 52.268 70.1216 54.7791 68.0327 56.868C65.9438 58.9569 63.4327 60.0013 60.4993 60.0013ZM44.4993 81.3346C43.0327 81.3346 41.7771 80.8124 40.7327 79.768C39.6882 78.7235 39.166 77.468 39.166 76.0013V73.868C39.166 72.3569 39.5549 70.968 40.3327 69.7013C41.1105 68.4346 42.1438 67.468 43.4327 66.8013C46.1882 65.4235 48.9882 64.3902 51.8327 63.7013C54.6771 63.0124 57.566 62.668 60.4993 62.668C63.4327 62.668 66.3216 63.0124 69.166 63.7013C72.0105 64.3902 74.8105 65.4235 77.566 66.8013C78.8549 67.468 79.8882 68.4346 80.666 69.7013C81.4438 70.968 81.8327 72.3569 81.8327 73.868V76.0013C81.8327 77.468 81.3105 78.7235 80.266 79.768C79.2216 80.8124 77.966 81.3346 76.4994 81.3346H44.4993Z" fill="#D1D1D6"/>
</g>
</svg>
