<svg width="41" height="39" viewBox="0 0 41 39" fill="none" xmlns="http://www.w3.org/2000/svg">
<path fillRule="evenodd" clipRule="evenodd" d="M5.04189 17.7678C5.0771 14.7807 4.69101 11.7666 4.29525 8.84837C4.20794 8.22039 3.63524 7.76909 3.02976 7.8848C2.41221 7.95722 1.9851 8.5372 2.06078 9.12177C2.44673 11.9495 2.83157 14.8704 2.79054 17.7195C2.77896 18.3275 3.277 18.8457 3.90001 18.8649C4.52259 18.8841 5.02988 18.3759 5.04189 17.7678Z" fill="#131316"/>
<path fillRule="evenodd" clipRule="evenodd" d="M18.3519 23.2273C21.7166 17.5334 24.3429 11.4326 27.8533 5.79277C28.1862 5.28483 28.0235 4.58399 27.4987 4.25934C26.9735 3.93481 26.2743 4.07582 25.953 4.62717C22.4291 10.2706 19.7899 16.3749 16.4117 22.0724C16.1008 22.6209 16.2808 23.3169 16.8173 23.6385C17.3418 23.9167 18.041 23.7758 18.3519 23.2273Z" fill="#131316"/>
<path fillRule="evenodd" clipRule="evenodd" d="M38.1473 26.9039C35.5707 27.7339 32.994 28.5636 30.4169 29.3937C29.8187 29.554 29.4964 30.1989 29.6884 30.7989C29.8807 31.3987 30.5062 31.6961 31.1048 31.5357C33.6858 30.7046 36.2664 29.8738 38.847 29.0427C39.4336 28.839 39.7528 28.1951 39.5574 27.5961C39.3736 27.0405 38.7335 26.7003 38.1473 26.9039Z" fill="#131316"/>
</svg>
