<svg width="33" height="31" viewBox="0 0 33 31" fill="none" xmlns="http://www.w3.org/2000/svg">
<path fillRule="evenodd" clipRule="evenodd" d="M30.7974 20.5342C29.9902 23.4808 29.5831 26.5657 29.2101 29.5583C29.1319 30.2029 29.5682 30.8013 30.183 30.8474C30.7983 30.9395 31.361 30.4788 31.4392 29.8803C31.7982 26.9797 32.1825 23.9874 32.9595 21.179C33.1281 20.5804 32.7811 19.9356 32.1843 19.7515C31.5879 19.5673 30.9664 19.9357 30.7974 20.5342Z" fill="#131316"/>
<path fillRule="evenodd" clipRule="evenodd" d="M19.3539 11.6028C14.6301 16.345 10.5144 21.6856 5.66386 26.3356C5.21085 26.75 5.18658 27.4867 5.60948 27.9471C6.03283 28.4075 6.7447 28.4533 7.19771 27.9929C12.0622 23.3429 16.1914 18.0022 20.9291 13.2601C21.3714 12.7997 21.3777 12.0632 20.9426 11.6028C20.508 11.1885 19.7962 11.1424 19.3539 11.6028Z" fill="#131316"/>
<path fillRule="evenodd" clipRule="evenodd" d="M1.18455 2.71603C3.88823 2.57791 6.59191 2.44006 9.29604 2.30194C9.91533 2.30194 10.3935 1.74919 10.3634 1.10463C10.3328 0.460067 9.80568 -6.39971e-05 9.18593 -6.39971e-05C6.47776 0.138056 3.77003 0.275907 1.06231 0.414027C0.443014 0.460067 -0.0320177 1.01264 0.00168838 1.6572C0.0353945 2.25572 0.565706 2.76207 1.18455 2.71603Z" fill="#131316"/>
</svg>
