<svg width="38" height="22" viewBox="0 0 38 22" fill="none" xmlns="http://www.w3.org/2000/svg">
<path fillRule="evenodd" clipRule="evenodd" d="M27.8811 1.87697C30.4153 3.07792 33.1914 4.01618 35.8905 4.91035C36.4725 5.10138 37.1556 4.90784 37.3713 4.4694C37.6302 4.0402 37.3565 3.53438 36.8176 3.35292C34.2009 2.48806 31.5051 1.58576 29.0919 0.435473C28.5784 0.188193 27.8769 0.306916 27.5369 0.703532C27.197 1.09982 27.3677 1.62936 27.8811 1.87697Z" fill="#131316"/>
<path fillRule="evenodd" clipRule="evenodd" d="M16.3019 8.3586C19.4194 12.7871 23.2682 16.8969 26.2638 21.3986C26.5249 21.8149 27.2083 21.9858 27.7583 21.7734C28.3084 21.5606 28.5512 21.0514 28.2469 20.6255C25.2552 16.1137 21.4102 11.994 18.2967 7.55538C17.9894 7.13737 17.3012 6.97963 16.7477 7.20091C16.2376 7.43142 15.9947 7.9406 16.3019 8.3586Z" fill="#131316"/>
<path fillRule="evenodd" clipRule="evenodd" d="M2.87718 19.7508C3.50646 17.7519 4.13598 15.753 4.76538 13.7537C4.93916 13.3024 4.55546 12.839 3.94311 12.7269C3.33064 12.6151 2.7516 12.9036 2.5777 13.3552C1.94716 15.3574 1.3165 17.3593 0.686089 19.3611C0.555444 19.822 0.939859 20.2831 1.55322 20.3926C2.12344 20.4925 2.74666 20.2113 2.87718 19.7508Z" fill="#131316"/>
</svg>
