<svg width="16" height="17" viewBox="0 0 16 17" fill="none" xmlns="http://www.w3.org/2000/svg">
<path d="M16 3.21949C15.4116 3.48675 14.7795 3.66734 14.115 3.74896C14.8007 3.32841 15.3136 2.66651 15.5582 1.88677C14.914 2.27899 14.209 2.55507 13.4738 2.70301C12.9794 2.16188 12.3245 1.80321 11.6109 1.68269C10.8973 1.56216 10.1648 1.68653 9.52717 2.03648C8.88955 2.38642 8.38247 2.94237 8.08467 3.618C7.78686 4.29364 7.71499 5.05116 7.88021 5.77296C6.57496 5.70578 5.29807 5.35801 4.13242 4.75222C2.96677 4.14644 1.93841 3.29617 1.11407 2.25661C0.832203 2.75502 0.670131 3.33289 0.670131 3.94833C0.669817 4.50236 0.802912 5.0479 1.05761 5.53656C1.3123 6.02522 1.68073 6.44187 2.13019 6.74956C1.60893 6.73256 1.09918 6.58818 0.643354 6.32844V6.37178C0.643302 7.14883 0.905511 7.90197 1.38549 8.5034C1.86547 9.10483 2.53365 9.51752 3.27667 9.67143C2.79312 9.80558 2.28615 9.82534 1.79406 9.72922C2.0037 10.3978 2.41205 10.9825 2.96194 11.4014C3.51184 11.8203 4.17575 12.0524 4.86074 12.0653C3.69794 13.001 2.26188 13.5086 0.783581 13.5063C0.521717 13.5064 0.260073 13.4907 0 13.4594C1.50056 14.4484 3.24731 14.9733 5.03127 14.9712C11.0702 14.9712 14.3715 9.84407 14.3715 5.39734C14.3715 5.25287 14.368 5.10696 14.3617 4.96249C15.0038 4.48645 15.5581 3.89697 15.9986 3.22165L16 3.21949Z" fill="#3E3C37"/>
</svg>
