<svg width="32" height="32" viewBox="0 0 32 32" fill="none" xmlns="http://www.w3.org/2000/svg">
<rect x="0.5" y="0.5" width="31" height="31" rx="7.5" fill="#F5EFFD"/>
<rect x="0.5" y="0.5" width="31" height="31" rx="7.5" stroke="#7757BD"/>
<path d="M22 14.6666H10M22 16.3333V13.8666C22 12.7465 22 12.1864 21.782 11.7586C21.5903 11.3823 21.2843 11.0763 20.908 10.8846C20.4802 10.6666 19.9201 10.6666 18.8 10.6666H13.2C12.0799 10.6666 11.5198 10.6666 11.092 10.8846C10.7157 11.0763 10.4097 11.3823 10.218 11.7586C10 12.1864 10 12.7465 10 13.8666V19.4666C10 20.5867 10 21.1467 10.218 21.5746C10.4097 21.9509 10.7157 22.2569 11.092 22.4486C11.5198 22.6666 12.0799 22.6666 13.2 22.6666H16M18.6667 9.33325V11.9999M13.3333 9.33325V11.9999M17.6667 20.6666L19 21.9999L22 18.9999" stroke="#7757BD" strokeWidth="1.2" strokeLinecap="round" strokeLinejoin="round"/>
</svg>
