<svg width="56" height="56" viewBox="0 0 56 56" fill="none" xmlns="http://www.w3.org/2000/svg">
<rect width="56" height="56" rx="28" fill="#EBFFEB"/>
<path d="M16.3335 22.166L25.8592 28.834C26.6306 29.374 27.0163 29.644 27.4358 29.7485C27.8064 29.8409 28.194 29.8409 28.5645 29.7485C28.984 29.644 29.3697 29.374 30.1411 28.834L39.6668 22.166M21.9335 37.3327H34.0668C36.027 37.3327 37.0071 37.3327 37.7558 36.9512C38.4144 36.6156 38.9498 36.0802 39.2854 35.4217C39.6668 34.673 39.6668 33.6929 39.6668 31.7327V24.266C39.6668 22.3058 39.6668 21.3257 39.2854 20.577C38.9498 19.9185 38.4144 19.383 37.7558 19.0475C37.0071 18.666 36.027 18.666 34.0668 18.666H21.9335C19.9733 18.666 18.9932 18.666 18.2445 19.0475C17.586 19.383 17.0505 19.9185 16.715 20.577C16.3335 21.3257 16.3335 22.3058 16.3335 24.266V31.7327C16.3335 33.6929 16.3335 34.673 16.715 35.4217C17.0505 36.0802 17.586 36.6156 18.2445 36.9512C18.9932 37.3327 19.9733 37.3327 21.9335 37.3327Z" stroke="#04D100" strokeWidth="1.5" strokeLinecap="round" strokeLinejoin="round"/>
</svg>
